<?xml version="1.0" encoding="UTF-8"?><svg xmlns="http://www.w3.org/2000/svg" xmlns:xlink="http://www.w3.org/1999/xlink" fill-opacity="1" color-rendering="auto" color-interpolation="auto" text-rendering="auto" stroke="black" stroke-linecap="square" width="563" stroke-miterlimit="10" shape-rendering="auto" stroke-opacity="1" fill="black" stroke-dasharray="none" font-weight="normal" stroke-width="1" height="635" font-family="'Dialog'" font-style="normal" stroke-linejoin="miter" font-size="12px" stroke-dashoffset="0" image-rendering="auto">
  <!--Generated by ySVG 2.5-->
  <defs id="genericDefs"/>
  <g>
    <g fill="white" text-rendering="geometricPrecision" shape-rendering="geometricPrecision" transform="translate(339,163)" stroke="white">
      <rect x="-339" width="563" height="635" y="-163" clip-path="url(#clipPath2)" stroke="none"/>
    </g>
    <g fill="gray" text-rendering="geometricPrecision" shape-rendering="geometricPrecision" transform="matrix(1,0,0,1,339,163)" stroke="gray">
      <rect x="0" width="10" height="30" y="66.3655" clip-path="url(#clipPath2)" stroke="none"/>
    </g>
    <g text-rendering="geometricPrecision" stroke-miterlimit="1.45" shape-rendering="geometricPrecision" transform="matrix(1,0,0,1,339,163)" stroke-linecap="butt">
      <rect fill="none" x="0" width="10" height="30" y="66.3655" clip-path="url(#clipPath2)"/>
    </g>
    <g text-rendering="geometricPrecision" shape-rendering="geometricPrecision" transform="matrix(1,0,0,1,310.187,87.246)">
      <g clip-path="url(#clipPath3)">
        <svg xml:space="preserve" opacity="1" writing-mode="lr-tb" stop-color="rgb(0, 0, 0)" shape-rendering="auto" glyph-orientation-horizontal="0deg" color-profile="auto" lighting-color="rgb(255, 255, 255)" color="rgb(0, 0, 0)" font-weight="400" alignment-baseline="auto" font-style="normal" version="1.1" color-interpolation-filters="linearrgb" text-anchor="start" stroke-linecap="butt" color-interpolation="srgb" font-variant="normal" word-spacing="normal" fill-opacity="1" text-rendering="auto" clip-path="none" text-decoration="none" letter-spacing="normal" viewBox="-0.064 -0.075 68 46" glyph-orientation-vertical="auto" display="inline" font-size-adjust="none" overflow="hidden" fill="rgb(0, 0, 0)" font-stretch="normal" stroke-dasharray="none" stroke-miterlimit="4" stop-opacity="1" color-rendering="auto" font-size="12" pointer-events="visiblepainted" mask="none" direction="ltr" baseline-shift="baseline" enable-background="new -0.064 -0.075 68 46" fill-rule="nonzero" image-rendering="auto" stroke-dashoffset="0" width="68px" marker-end="none" clip="auto" cursor="auto" stroke="none" filter="none" visibility="visible" kerning="auto" stroke-width="1" font-family="&quot;Arial&quot;,&quot;Helvetica&quot;,sans-serif" flood-opacity="1" clip-rule="nonzero" src="none" height="46px" unicode-bidi="normal" stroke-linejoin="miter" stroke-opacity="1" flood-color="rgb(0, 0, 0)" dominant-baseline="auto" marker-start="none" x="0px" marker-mid="none" y="0px">
<defs>
<clipPath clipPathUnits="userSpaceOnUse" id="clipPath1"><path d="M0 0 L563 0 L563 635 L0 635 L0 0 Z"/></clipPath><clipPath clipPathUnits="userSpaceOnUse" id="clipPath2"><path d="M-339 -163 L224 -163 L224 472 L-339 472 L-339 -163 Z"/></clipPath><clipPath clipPathUnits="userSpaceOnUse" id="clipPath3"><path d="M-310.187 -87.246 L252.813 -87.246 L252.813 547.754 L-310.187 547.754 L-310.187 -87.246 Z"/></clipPath><clipPath clipPathUnits="userSpaceOnUse" id="clipPath4"><path d="M-488.8763 -80.7155 L74.1237 -80.7155 L74.1237 554.2845 L-488.8763 554.2845 L-488.8763 -80.7155 Z"/></clipPath><clipPath clipPathUnits="userSpaceOnUse" id="clipPath5"><path d="M-66.5053 -80.7155 L496.4947 -80.7155 L496.4947 554.2845 L-66.5053 554.2845 L-66.5053 -80.7155 Z"/></clipPath></defs>
<radialGradient gradientTransform="matrix(1.15 0 0 1 -526.6598 -1982.4023)" id="svg1.SVGID_1_" r="21.6001" cx="478.8413" gradientUnits="userSpaceOnUse" cy="1991.2729">
	<stop offset="0" style="stop-color:#F2F2F2"/>
	<stop offset="1" style="stop-color:#8D8D8D"/>
</radialGradient>
<path fill="url(#svg1.SVGID_1_)" d="M10.263,1.903c0-0.987,0.807-1.794,1.794-1.794h43.279c0.986,0,1.795,0.807,1.795,1.794v26.978  c0,0.987-0.809,1.794-1.795,1.794h-43.28c-0.987,0-1.794-0.807-1.794-1.794L10.263,1.903L10.263,1.903z"/>
<path stroke-linecap="round" display="none" fill="none" stroke-linejoin="round" d="  M10.263,1.903c0-0.987,0.807-1.794,1.794-1.794h43.279c0.986,0,1.795,0.807,1.795,1.794v26.978c0,0.987-0.809,1.794-1.795,1.794  h-43.28c-0.987,0-1.794-0.807-1.794-1.794L10.263,1.903L10.263,1.903z" stroke="#3C89C9" stroke-width="0.2185" stroke-miterlimit="10"/>
<radialGradient gradientTransform="matrix(1.1935 0 0 1 -509.6731 -1982.4023)" gradientUnits="userSpaceOnUse" r="47.8462" cx="455.894" id="svg1.SVGID_2_" cy="1983.9624" fx="493.5344" fy="1977.5143">
	<stop offset="0" style="stop-color:#4D4D4D"/>
	<stop offset="1" style="stop-color:#999999"/>
</radialGradient>
<path fill="url(#svg1.SVGID_2_)" d="M11.18,2.819c0-0.987,0.807-1.794,1.794-1.794h41.649c0.986,0,1.795,0.807,1.795,1.794v24.943  c0,0.985-0.809,1.794-1.795,1.794H12.974c-0.987,0-1.794-0.809-1.794-1.794V2.819z"/>
<radialGradient gradientTransform="matrix(1.1923 0 0 1 -510.1314 -1982.4023)" id="svg1.SVGID_3_" r="30.6699" cx="456.8843" gradientUnits="userSpaceOnUse" cy="1984.0386">
	<stop offset="0" style="stop-color:#9CD7FF"/>
	<stop offset="1" style="stop-color:#3C89C9"/>
</radialGradient>
<path fill="url(#svg1.SVGID_3_)" d="M11.689,3.228c0-0.987,0.807-1.794,1.794-1.794h40.633c0.986,0,1.795,0.807,1.795,1.794v24.126  c0,0.986-0.809,1.794-1.795,1.794H13.483c-0.987,0-1.794-0.809-1.794-1.794V3.228z"/>
<path fill="#F2F2F2" opacity="0.24" d="M11.689,21.472V3.228c0-0.987,0.807-1.794,1.794-1.794h40.633  c0.986,0,1.795,0.807,1.795,1.794v9.454c0,0.987-10.518,5.21-18.256,6.795C29.917,21.062,11.689,21.472,11.689,21.472z"/>
<linearGradient gradientTransform="matrix(1 0 0 -1 -97.6001 -165.0498)" x1="131.3501" x2="131.3501" gradientUnits="userSpaceOnUse" y1="-212.2612" y2="-170.6274" id="svg1.SVGID_4_">
	<stop offset="0" style="stop-color:#4D4D4D"/>
	<stop offset="0.0667" style="stop-color:#717171"/>
	<stop offset="0.069" style="stop-color:#757575"/>
	<stop offset="0.0831" style="stop-color:#8C8C8C"/>
	<stop offset="0.0996" style="stop-color:#9E9E9E"/>
	<stop offset="0.1196" style="stop-color:#AAAAAA"/>
	<stop offset="0.1466" style="stop-color:#B1B1B1"/>
	<stop offset="0.2121" style="stop-color:#B3B3B3"/>
	<stop offset="1" style="stop-color:#C5C5C5"/>
</linearGradient>
<path fill="url(#svg1.SVGID_4_)" d="M58.385,32.234c-0.689-0.856-2.154-1.559-3.254-1.559H12c-1.1,0-2.552,0.711-3.227,1.579  l-7.546,9.717C0,43.55,0.042,43.785,0,44.55v0.125c0.056,0.393,0.311,1.002,1.248,1.002h64.75c0.75,0.002,1.5-0.252,1.5-1.002V44.55  c0-0.813,0-0.813-1.254-2.559L58.385,32.234z"/>
<path fill="#F2F2F2" d="M58.385,32.234c-0.689-0.856-2.154-1.559-3.254-1.559H12  c-1.1,0-2.552,0.711-3.227,1.579l-7.055,9.085l58.098-7.33L58.385,32.234z" enable-background="new    " opacity="0.23"/>
<path fill="#6E6E6E" d="M59.75,37.205c0.344,0.431,0.172,0.783-0.377,0.783H8.249c-0.55,0-0.742-0.369-0.427-0.819l2.786-3.986  c0.315-0.45,1.023-0.819,1.573-0.819h42.729c0.551,0,1.279,0.354,1.623,0.783L59.75,37.205z"/>
<path fill="#6E6E6E" d="M40.43,41.906c0.072,0.217-0.057,0.395-0.285,0.395H26.727c-0.229,0-0.364-0.18-0.3-0.398l0.822-2.826  c0.064-0.221,0.303-0.399,0.532-0.399h11.167c0.229,0,0.475,0.179,0.547,0.396L40.43,41.906z"/>
</svg>
      </g>
    </g>
    <g text-rendering="geometricPrecision" stroke-miterlimit="1.45" shape-rendering="geometricPrecision" font-family="sans-serif" transform="matrix(1,0,0,1,339,163)" stroke-linecap="butt">
      <text x="-10.3398" xml:space="preserve" y="-84.2067" clip-path="url(#clipPath2)" stroke="none">Client</text>
    </g>
    <g text-rendering="geometricPrecision" shape-rendering="geometricPrecision" transform="matrix(1,0,0,1,488.8763,80.7155)">
      <g clip-path="url(#clipPath4)">
        <svg xml:space="preserve" opacity="1" writing-mode="lr-tb" stop-color="rgb(0, 0, 0)" shape-rendering="auto" glyph-orientation-horizontal="0deg" color-profile="auto" lighting-color="rgb(255, 255, 255)" color="rgb(0, 0, 0)" font-weight="400" alignment-baseline="auto" font-style="normal" version="1.1" color-interpolation-filters="linearrgb" text-anchor="start" stroke-linecap="butt" color-interpolation="srgb" font-variant="normal" word-spacing="normal" fill-opacity="1" text-rendering="auto" clip-path="none" text-decoration="none" letter-spacing="normal" viewBox="-0.569 -0.349 37 59" glyph-orientation-vertical="auto" display="inline" font-size-adjust="none" overflow="hidden" fill="rgb(0, 0, 0)" font-stretch="normal" stroke-dasharray="none" stroke-miterlimit="4" stop-opacity="1" color-rendering="auto" font-size="12" pointer-events="visiblepainted" mask="none" direction="ltr" baseline-shift="baseline" enable-background="new -0.569 -0.349 37 59" fill-rule="nonzero" image-rendering="auto" stroke-dashoffset="0" width="37px" marker-end="none" clip="auto" cursor="auto" stroke="none" filter="none" visibility="visible" kerning="auto" stroke-width="1" font-family="&quot;Arial&quot;,&quot;Helvetica&quot;,sans-serif" flood-opacity="1" clip-rule="nonzero" src="none" height="59px" unicode-bidi="normal" stroke-linejoin="miter" stroke-opacity="1" flood-color="rgb(0, 0, 0)" dominant-baseline="auto" marker-start="none" x="0px" marker-mid="none" y="0px">
<defs>
</defs>
<linearGradient gradientTransform="matrix(1 0 0 -1 -97.6001 -161.5986)" x1="115.7744" x2="115.7743" gradientUnits="userSpaceOnUse" y1="-158.8057" y2="-219.9759" id="svg2.SVGID_1_">
	<stop offset="0" style="stop-color:#B3B3B3"/>
	<stop offset="0.164" style="stop-color:#ABABAB"/>
	<stop offset="0.4188" style="stop-color:#959595"/>
	<stop offset="0.7308" style="stop-color:#717171"/>
	<stop offset="1" style="stop-color:#4D4D4D"/>
</linearGradient>
<path fill="url(#svg2.SVGID_1_)" d="M35.79,55.773c0,1.392-1.137,2.528-2.527,2.528H3.086c-1.39,0-2.528-1.139-2.528-2.528V2.528  C0.559,1.138,1.697,0,3.086,0h30.176c1.391,0,2.527,1.138,2.527,2.528V55.773z"/>
<linearGradient gradientTransform="matrix(1 0 0 -1 -97.6001 -161.5986)" x1="115.7744" x2="115.7743" gradientUnits="userSpaceOnUse" y1="-158.8057" y2="-219.9759" id="svg2.SVGID_2_">
	<stop offset="0" style="stop-color:#B3B3B3"/>
	<stop offset="0.164" style="stop-color:#ABABAB"/>
	<stop offset="0.4188" style="stop-color:#959595"/>
	<stop offset="0.7308" style="stop-color:#717171"/>
	<stop offset="1" style="stop-color:#4D4D4D"/>
</linearGradient>
<path fill="url(#svg2.SVGID_2_)" d="M35.79,55.773c0,1.392-1.137,2.528-2.527,2.528H3.086c-1.39,0-2.528-1.139-2.528-2.528V2.528  C0.559,1.138,1.697,0,3.086,0h30.176c1.391,0,2.527,1.138,2.527,2.528V55.773z"/>
<path fill="#FFFFFF" opacity="0.19" d="M35.79,39.342L0.559,26.702V2.529c0-1.391,1.138-2.528,2.528-2.528h30.176  c1.391,0,2.527,1.138,2.527,2.528V39.342z"/>
<path fill="#353535" d="M32.868,53.717c0,1.392-1.138,2.529-2.527,2.529H11.854c-1.39,0-2.528-1.139-2.528-2.529V11.534  c0-1.39,1.138-2.528,2.528-2.528H30.34c1.391,0,2.528,1.138,2.528,2.528V53.717L32.868,53.717z"/>
<linearGradient gradientTransform="matrix(1 0 0 -1 -97.6001 -161.5986)" x1="123.9893" x2="123.9893" gradientUnits="userSpaceOnUse" y1="-171.4683" y2="-215.0464" id="svg2.SVGID_3_">
	<stop offset="0" style="stop-color:#B3B3B3"/>
	<stop offset="0.164" style="stop-color:#ABABAB"/>
	<stop offset="0.4188" style="stop-color:#959595"/>
	<stop offset="0.7308" style="stop-color:#717171"/>
	<stop offset="1" style="stop-color:#4D4D4D"/>
</linearGradient>
<path fill="url(#svg2.SVGID_3_)" d="M30.34,52.129c0,0.695-0.568,1.265-1.265,1.265h-5.371c-0.695,0-1.265-0.568-1.265-1.265V13.123  c0-0.695,0.568-1.264,1.265-1.264h5.371c0.695,0,1.265,0.569,1.265,1.264V52.129z"/>
<linearGradient gradientTransform="matrix(1 0 0 -1 -97.6001 -161.5986)" x1="113.4834" x2="113.4834" gradientUnits="userSpaceOnUse" y1="-171.4683" y2="-215.0464" id="svg2.SVGID_4_">
	<stop offset="0" style="stop-color:#B3B3B3"/>
	<stop offset="0.164" style="stop-color:#ABABAB"/>
	<stop offset="0.4188" style="stop-color:#959595"/>
	<stop offset="0.7308" style="stop-color:#717171"/>
	<stop offset="1" style="stop-color:#4D4D4D"/>
</linearGradient>
<path fill="url(#svg2.SVGID_4_)" d="M19.833,52.129c0,0.695-0.567,1.265-1.264,1.265h-5.372c-0.695,0-1.264-0.568-1.264-1.265V13.123  c0-0.695,0.569-1.264,1.264-1.264h5.372c0.695,0,1.264,0.569,1.264,1.264V52.129z"/>
<linearGradient gradientTransform="matrix(1 0 0 -1 -97.6001 -161.5986)" x1="123.9932" x2="123.9932" gradientUnits="userSpaceOnUse" y1="-215.5532" y2="-209.4927" id="svg2.SVGID_5_">
	<stop offset="0" style="stop-color:#8D8D8D"/>
	<stop offset="0.2282" style="stop-color:#858585"/>
	<stop offset="0.5829" style="stop-color:#6F6F6F"/>
	<stop offset="1" style="stop-color:#4D4D4D"/>
</linearGradient>
<rect x="23.362" fill="url(#svg2.SVGID_5_)" width="6.06" y="45.948" height="6.061"/>
<linearGradient gradientTransform="matrix(1 0 0 -1 -97.6001 -161.5986)" x1="113.4834" x2="113.4834" gradientUnits="userSpaceOnUse" y1="-215.4204" y2="-209.3599" id="svg2.SVGID_6_">
	<stop offset="0" style="stop-color:#8D8D8D"/>
	<stop offset="0.2282" style="stop-color:#858585"/>
	<stop offset="0.5829" style="stop-color:#6F6F6F"/>
	<stop offset="1" style="stop-color:#4D4D4D"/>
</linearGradient>
<rect x="12.854" fill="url(#svg2.SVGID_6_)" width="6.06" y="45.815" height="6.061"/>
<rect x="12.854" fill="#6E6E6E" width="6.06" y="24.328" height="15.014"/>
<rect x="23.36" fill="#6E6E6E" width="6.061" y="24.328" height="15.014"/>
<rect x="0.071" y="50.68" fill="#C8FF00" width="5.709" height="2.898" stroke="#717171" stroke-width="0.1416" stroke-miterlimit="10"/>
<radialGradient gradientTransform="matrix(1 0 0 -1 -97.6001 -161.5986)" id="svg2.SVGID_7_" r="3.221" cx="124.1484" gradientUnits="userSpaceOnUse" cy="-180.064">
	<stop offset="0" style="stop-color:#8D8D8D"/>
	<stop offset="0.2282" style="stop-color:#858585"/>
	<stop offset="0.5829" style="stop-color:#6F6F6F"/>
	<stop offset="1" style="stop-color:#4D4D4D"/>
</radialGradient>
<circle fill="url(#svg2.SVGID_7_)" r="2.296" cx="26.391" cy="18.307" stroke="#666666" stroke-width="0.632" stroke-miterlimit="10"/>
<radialGradient gradientTransform="matrix(1 0 0 -1 -97.6001 -161.5986)" id="svg2.SVGID_8_" r="3.2209" cx="113.6426" gradientUnits="userSpaceOnUse" cy="-180.064">
	<stop offset="0" style="stop-color:#8D8D8D"/>
	<stop offset="0.2282" style="stop-color:#858585"/>
	<stop offset="0.5829" style="stop-color:#6F6F6F"/>
	<stop offset="1" style="stop-color:#4D4D4D"/>
</radialGradient>
<circle fill="url(#svg2.SVGID_8_)" r="2.295" cx="15.885" cy="18.307" stroke="#666666" stroke-width="0.632" stroke-miterlimit="10"/>
</svg>
      </g>
    </g>
    <g text-rendering="geometricPrecision" stroke-miterlimit="1.45" shape-rendering="geometricPrecision" font-family="sans-serif" transform="matrix(1,0,0,1,339,163)" stroke-linecap="butt">
      <text x="156.0035" xml:space="preserve" y="-90.5722" clip-path="url(#clipPath2)" stroke="none">Host</text>
    </g>
    <g fill="gray" text-rendering="geometricPrecision" shape-rendering="geometricPrecision" transform="matrix(1,0,0,1,339,163)" stroke="gray">
      <rect x="163.3404" width="10" height="30" y="66.3655" clip-path="url(#clipPath2)" stroke="none"/>
    </g>
    <g text-rendering="geometricPrecision" stroke-miterlimit="1.45" shape-rendering="geometricPrecision" transform="matrix(1,0,0,1,339,163)" stroke-linecap="butt">
      <rect fill="none" x="163.3404" width="10" height="30" y="66.3655" clip-path="url(#clipPath2)"/>
    </g>
    <g fill="gray" text-rendering="geometricPrecision" shape-rendering="geometricPrecision" transform="matrix(1,0,0,1,339,163)" stroke="gray">
      <rect x="163.3404" width="10" height="30" y="126.3655" clip-path="url(#clipPath2)" stroke="none"/>
    </g>
    <g text-rendering="geometricPrecision" stroke-miterlimit="1.45" shape-rendering="geometricPrecision" transform="matrix(1,0,0,1,339,163)" stroke-linecap="butt">
      <rect fill="none" x="163.3404" width="10" height="30" y="126.3655" clip-path="url(#clipPath2)"/>
    </g>
    <g fill="gray" text-rendering="geometricPrecision" shape-rendering="geometricPrecision" transform="matrix(1,0,0,1,339,163)" stroke="gray">
      <rect x="-0" width="10" height="30" y="126.3655" clip-path="url(#clipPath2)" stroke="none"/>
    </g>
    <g text-rendering="geometricPrecision" stroke-miterlimit="1.45" shape-rendering="geometricPrecision" transform="matrix(1,0,0,1,339,163)" stroke-linecap="butt">
      <rect fill="none" x="-0" width="10" height="30" y="126.3655" clip-path="url(#clipPath2)"/>
    </g>
    <g fill="gray" text-rendering="geometricPrecision" shape-rendering="geometricPrecision" transform="matrix(1,0,0,1,339,163)" stroke="gray">
      <rect x="-0" width="10" height="30" y="246.3655" clip-path="url(#clipPath2)" stroke="none"/>
    </g>
    <g text-rendering="geometricPrecision" stroke-miterlimit="1.45" shape-rendering="geometricPrecision" transform="matrix(1,0,0,1,339,163)" stroke-linecap="butt">
      <rect fill="none" x="-0" width="10" height="30" y="246.3655" clip-path="url(#clipPath2)"/>
    </g>
    <g fill="gray" text-rendering="geometricPrecision" shape-rendering="geometricPrecision" transform="matrix(1,0,0,1,339,163)" stroke="gray">
      <rect x="163.3404" width="10" height="30" y="246.3655" clip-path="url(#clipPath2)" stroke="none"/>
    </g>
    <g text-rendering="geometricPrecision" stroke-miterlimit="1.45" shape-rendering="geometricPrecision" transform="matrix(1,0,0,1,339,163)" stroke-linecap="butt">
      <rect fill="none" x="163.3404" width="10" height="30" y="246.3655" clip-path="url(#clipPath2)"/>
    </g>
    <g fill="gray" text-rendering="geometricPrecision" shape-rendering="geometricPrecision" transform="matrix(1,0,0,1,339,163)" stroke="gray">
      <rect x="163.3404" width="10" height="30" y="306.3655" clip-path="url(#clipPath2)" stroke="none"/>
    </g>
    <g text-rendering="geometricPrecision" stroke-miterlimit="1.45" shape-rendering="geometricPrecision" transform="matrix(1,0,0,1,339,163)" stroke-linecap="butt">
      <rect fill="none" x="163.3404" width="10" height="30" y="306.3655" clip-path="url(#clipPath2)"/>
    </g>
    <g fill="gray" text-rendering="geometricPrecision" shape-rendering="geometricPrecision" transform="matrix(1,0,0,1,339,163)" stroke="gray">
      <rect x="-0" width="10" height="30" y="306.3655" clip-path="url(#clipPath2)" stroke="none"/>
    </g>
    <g text-rendering="geometricPrecision" stroke-miterlimit="1.45" shape-rendering="geometricPrecision" transform="matrix(1,0,0,1,339,163)" stroke-linecap="butt">
      <rect fill="none" x="-0" width="10" height="30" y="306.3655" clip-path="url(#clipPath2)"/>
    </g>
    <g fill="gray" text-rendering="geometricPrecision" shape-rendering="geometricPrecision" transform="matrix(1,0,0,1,339,163)" stroke="gray">
      <rect x="-0" width="10" height="30" y="366.3655" clip-path="url(#clipPath2)" stroke="none"/>
    </g>
    <g text-rendering="geometricPrecision" stroke-miterlimit="1.45" shape-rendering="geometricPrecision" transform="matrix(1,0,0,1,339,163)" stroke-linecap="butt">
      <rect fill="none" x="-0" width="10" height="30" y="366.3655" clip-path="url(#clipPath2)"/>
    </g>
    <g fill="gray" text-rendering="geometricPrecision" shape-rendering="geometricPrecision" transform="matrix(1,0,0,1,339,163)" stroke="gray">
      <rect x="163.3404" width="10" height="30" y="426.3655" clip-path="url(#clipPath2)" stroke="none"/>
    </g>
    <g text-rendering="geometricPrecision" stroke-miterlimit="1.45" shape-rendering="geometricPrecision" transform="matrix(1,0,0,1,339,163)" stroke-linecap="butt">
      <rect fill="none" x="163.3404" width="10" height="30" y="426.3655" clip-path="url(#clipPath2)"/>
    </g>
    <g fill="gray" text-rendering="geometricPrecision" shape-rendering="geometricPrecision" transform="matrix(1,0,0,1,339,163)" stroke="gray">
      <rect x="-0" width="10" height="30" y="426.3655" clip-path="url(#clipPath2)" stroke="none"/>
    </g>
    <g text-rendering="geometricPrecision" stroke-miterlimit="1.45" shape-rendering="geometricPrecision" transform="matrix(1,0,0,1,339,163)" stroke-linecap="butt">
      <rect fill="none" x="-0" width="10" height="30" y="426.3655" clip-path="url(#clipPath2)"/>
    </g>
    <g fill="rgb(255,204,0)" text-rendering="geometricPrecision" shape-rendering="geometricPrecision" transform="matrix(1,0,0,1,339,163)" stroke="rgb(255,204,0)">
      <path d="M-39.949 -147.9355 L193.051 -147.9355 L193.051 -132.9355 L208.051 -132.9355 L208.051 -119.9355 L-39.949 -119.9355 Z" stroke="none" clip-path="url(#clipPath2)"/>
      <path fill="white" d="M193.051 -147.9355 L193.051 -132.9355 L208.051 -132.9355 Z" clip-path="url(#clipPath2)" fill-rule="evenodd" stroke="none"/>
    </g>
    <g text-rendering="geometricPrecision" stroke-miterlimit="1.45" shape-rendering="geometricPrecision" transform="matrix(1,0,0,1,339,163)" stroke-linecap="butt">
      <path fill="none" d="M-39.949 -147.9355 L193.051 -147.9355 L193.051 -132.9355 L208.051 -132.9355 L208.051 -119.9355 L-39.949 -119.9355 Z" clip-path="url(#clipPath2)"/>
      <path fill="none" d="M193.051 -147.9355 L193.051 -132.9355 L208.051 -132.9355 Z" clip-path="url(#clipPath2)" fill-rule="evenodd"/>
      <text x="54.3733" xml:space="preserve" y="-129.2216" clip-path="url(#clipPath2)" font-family="sans-serif" stroke="none">Client Start</text>
    </g>
    <g text-rendering="geometricPrecision" shape-rendering="geometricPrecision" transform="matrix(1,0,0,1,66.5053,80.7155)">
      <g clip-path="url(#clipPath5)">
        <svg xml:space="preserve" opacity="1" writing-mode="lr-tb" stop-color="rgb(0, 0, 0)" shape-rendering="auto" glyph-orientation-horizontal="0deg" color-profile="auto" lighting-color="rgb(255, 255, 255)" color="rgb(0, 0, 0)" font-weight="400" alignment-baseline="auto" font-style="normal" version="1.1" color-interpolation-filters="linearrgb" text-anchor="start" stroke-linecap="butt" color-interpolation="srgb" font-variant="normal" word-spacing="normal" fill-opacity="1" text-rendering="auto" clip-path="none" text-decoration="none" letter-spacing="normal" viewBox="-0.569 -0.349 37 59" glyph-orientation-vertical="auto" display="inline" font-size-adjust="none" overflow="hidden" fill="rgb(0, 0, 0)" font-stretch="normal" stroke-dasharray="none" stroke-miterlimit="4" stop-opacity="1" color-rendering="auto" font-size="12" pointer-events="visiblepainted" mask="none" direction="ltr" baseline-shift="baseline" enable-background="new -0.569 -0.349 37 59" fill-rule="nonzero" image-rendering="auto" stroke-dashoffset="0" width="37px" marker-end="none" clip="auto" cursor="auto" stroke="none" filter="none" visibility="visible" kerning="auto" stroke-width="1" font-family="&quot;Arial&quot;,&quot;Helvetica&quot;,sans-serif" flood-opacity="1" clip-rule="nonzero" src="none" height="59px" unicode-bidi="normal" stroke-linejoin="miter" stroke-opacity="1" flood-color="rgb(0, 0, 0)" dominant-baseline="auto" marker-start="none" x="0px" marker-mid="none" y="0px">
<defs>
</defs>
<linearGradient gradientTransform="matrix(1 0 0 -1 -97.6001 -161.5986)" x1="115.7744" x2="115.7743" gradientUnits="userSpaceOnUse" y1="-158.8057" y2="-219.9759" id="svg3.SVGID_1_">
	<stop offset="0" style="stop-color:#B3B3B3"/>
	<stop offset="0.164" style="stop-color:#ABABAB"/>
	<stop offset="0.4188" style="stop-color:#959595"/>
	<stop offset="0.7308" style="stop-color:#717171"/>
	<stop offset="1" style="stop-color:#4D4D4D"/>
</linearGradient>
<path fill="url(#svg3.SVGID_1_)" d="M35.79,55.773c0,1.392-1.137,2.528-2.527,2.528H3.086c-1.39,0-2.528-1.139-2.528-2.528V2.528  C0.559,1.138,1.697,0,3.086,0h30.176c1.391,0,2.527,1.138,2.527,2.528V55.773z"/>
<linearGradient gradientTransform="matrix(1 0 0 -1 -97.6001 -161.5986)" x1="115.7744" x2="115.7743" gradientUnits="userSpaceOnUse" y1="-158.8057" y2="-219.9759" id="svg3.SVGID_2_">
	<stop offset="0" style="stop-color:#B3B3B3"/>
	<stop offset="0.164" style="stop-color:#ABABAB"/>
	<stop offset="0.4188" style="stop-color:#959595"/>
	<stop offset="0.7308" style="stop-color:#717171"/>
	<stop offset="1" style="stop-color:#4D4D4D"/>
</linearGradient>
<path fill="url(#svg3.SVGID_2_)" d="M35.79,55.773c0,1.392-1.137,2.528-2.527,2.528H3.086c-1.39,0-2.528-1.139-2.528-2.528V2.528  C0.559,1.138,1.697,0,3.086,0h30.176c1.391,0,2.527,1.138,2.527,2.528V55.773z"/>
<path fill="#FFFFFF" opacity="0.19" d="M35.79,39.342L0.559,26.702V2.529c0-1.391,1.138-2.528,2.528-2.528h30.176  c1.391,0,2.527,1.138,2.527,2.528V39.342z"/>
<path fill="#353535" d="M32.868,53.717c0,1.392-1.138,2.529-2.527,2.529H11.854c-1.39,0-2.528-1.139-2.528-2.529V11.534  c0-1.39,1.138-2.528,2.528-2.528H30.34c1.391,0,2.528,1.138,2.528,2.528V53.717L32.868,53.717z"/>
<linearGradient gradientTransform="matrix(1 0 0 -1 -97.6001 -161.5986)" x1="123.9893" x2="123.9893" gradientUnits="userSpaceOnUse" y1="-171.4683" y2="-215.0464" id="svg3.SVGID_3_">
	<stop offset="0" style="stop-color:#B3B3B3"/>
	<stop offset="0.164" style="stop-color:#ABABAB"/>
	<stop offset="0.4188" style="stop-color:#959595"/>
	<stop offset="0.7308" style="stop-color:#717171"/>
	<stop offset="1" style="stop-color:#4D4D4D"/>
</linearGradient>
<path fill="url(#svg3.SVGID_3_)" d="M30.34,52.129c0,0.695-0.568,1.265-1.265,1.265h-5.371c-0.695,0-1.265-0.568-1.265-1.265V13.123  c0-0.695,0.568-1.264,1.265-1.264h5.371c0.695,0,1.265,0.569,1.265,1.264V52.129z"/>
<linearGradient gradientTransform="matrix(1 0 0 -1 -97.6001 -161.5986)" x1="113.4834" x2="113.4834" gradientUnits="userSpaceOnUse" y1="-171.4683" y2="-215.0464" id="svg3.SVGID_4_">
	<stop offset="0" style="stop-color:#B3B3B3"/>
	<stop offset="0.164" style="stop-color:#ABABAB"/>
	<stop offset="0.4188" style="stop-color:#959595"/>
	<stop offset="0.7308" style="stop-color:#717171"/>
	<stop offset="1" style="stop-color:#4D4D4D"/>
</linearGradient>
<path fill="url(#svg3.SVGID_4_)" d="M19.833,52.129c0,0.695-0.567,1.265-1.264,1.265h-5.372c-0.695,0-1.264-0.568-1.264-1.265V13.123  c0-0.695,0.569-1.264,1.264-1.264h5.372c0.695,0,1.264,0.569,1.264,1.264V52.129z"/>
<linearGradient gradientTransform="matrix(1 0 0 -1 -97.6001 -161.5986)" x1="123.9932" x2="123.9932" gradientUnits="userSpaceOnUse" y1="-215.5532" y2="-209.4927" id="svg3.SVGID_5_">
	<stop offset="0" style="stop-color:#8D8D8D"/>
	<stop offset="0.2282" style="stop-color:#858585"/>
	<stop offset="0.5829" style="stop-color:#6F6F6F"/>
	<stop offset="1" style="stop-color:#4D4D4D"/>
</linearGradient>
<rect x="23.362" fill="url(#svg3.SVGID_5_)" width="6.06" y="45.948" height="6.061"/>
<linearGradient gradientTransform="matrix(1 0 0 -1 -97.6001 -161.5986)" x1="113.4834" x2="113.4834" gradientUnits="userSpaceOnUse" y1="-215.4204" y2="-209.3599" id="svg3.SVGID_6_">
	<stop offset="0" style="stop-color:#8D8D8D"/>
	<stop offset="0.2282" style="stop-color:#858585"/>
	<stop offset="0.5829" style="stop-color:#6F6F6F"/>
	<stop offset="1" style="stop-color:#4D4D4D"/>
</linearGradient>
<rect x="12.854" fill="url(#svg3.SVGID_6_)" width="6.06" y="45.815" height="6.061"/>
<rect x="12.854" fill="#6E6E6E" width="6.06" y="24.328" height="15.014"/>
<rect x="23.36" fill="#6E6E6E" width="6.061" y="24.328" height="15.014"/>
<rect x="0.071" y="50.68" fill="#C8FF00" width="5.709" height="2.898" stroke="#717171" stroke-width="0.1416" stroke-miterlimit="10"/>
<radialGradient gradientTransform="matrix(1 0 0 -1 -97.6001 -161.5986)" id="svg3.SVGID_7_" r="3.221" cx="124.1484" gradientUnits="userSpaceOnUse" cy="-180.064">
	<stop offset="0" style="stop-color:#8D8D8D"/>
	<stop offset="0.2282" style="stop-color:#858585"/>
	<stop offset="0.5829" style="stop-color:#6F6F6F"/>
	<stop offset="1" style="stop-color:#4D4D4D"/>
</radialGradient>
<circle fill="url(#svg3.SVGID_7_)" r="2.296" cx="26.391" cy="18.307" stroke="#666666" stroke-width="0.632" stroke-miterlimit="10"/>
<radialGradient gradientTransform="matrix(1 0 0 -1 -97.6001 -161.5986)" id="svg3.SVGID_8_" r="3.2209" cx="113.6426" gradientUnits="userSpaceOnUse" cy="-180.064">
	<stop offset="0" style="stop-color:#8D8D8D"/>
	<stop offset="0.2282" style="stop-color:#858585"/>
	<stop offset="0.5829" style="stop-color:#6F6F6F"/>
	<stop offset="1" style="stop-color:#4D4D4D"/>
</radialGradient>
<circle fill="url(#svg3.SVGID_8_)" r="2.295" cx="15.885" cy="18.307" stroke="#666666" stroke-width="0.632" stroke-miterlimit="10"/>
</svg>
      </g>
    </g>
    <g text-rendering="geometricPrecision" stroke-miterlimit="1.45" shape-rendering="geometricPrecision" font-family="sans-serif" transform="matrix(1,0,0,1,339,163)" stroke-linecap="butt">
      <text x="-266.3675" xml:space="preserve" y="-90.5722" clip-path="url(#clipPath2)" stroke="none">Host</text>
    </g>
    <g fill="gray" text-rendering="geometricPrecision" shape-rendering="geometricPrecision" transform="matrix(1,0,0,1,339,163)" stroke="gray">
      <rect x="-259.0306" width="10" height="30" y="6.3655" clip-path="url(#clipPath2)" stroke="none"/>
    </g>
    <g text-rendering="geometricPrecision" stroke-miterlimit="1.45" shape-rendering="geometricPrecision" transform="matrix(1,0,0,1,339,163)" stroke-linecap="butt">
      <rect fill="none" x="-259.0306" width="10" height="30" y="6.3655" clip-path="url(#clipPath2)"/>
    </g>
    <g fill="gray" text-rendering="geometricPrecision" shape-rendering="geometricPrecision" transform="matrix(1,0,0,1,339,163)" stroke="gray">
      <rect x="-259.0306" width="10" height="30" y="66.3655" clip-path="url(#clipPath2)" stroke="none"/>
    </g>
    <g text-rendering="geometricPrecision" stroke-miterlimit="1.45" shape-rendering="geometricPrecision" transform="matrix(1,0,0,1,339,163)" stroke-linecap="butt">
      <rect fill="none" x="-259.0306" width="10" height="30" y="66.3655" clip-path="url(#clipPath2)"/>
    </g>
    <g fill="gray" text-rendering="geometricPrecision" shape-rendering="geometricPrecision" transform="matrix(1,0,0,1,339,163)" stroke="gray">
      <rect x="-259.0306" width="10" height="30" y="126.3655" clip-path="url(#clipPath2)" stroke="none"/>
    </g>
    <g text-rendering="geometricPrecision" stroke-miterlimit="1.45" shape-rendering="geometricPrecision" transform="matrix(1,0,0,1,339,163)" stroke-linecap="butt">
      <rect fill="none" x="-259.0306" width="10" height="30" y="126.3655" clip-path="url(#clipPath2)"/>
    </g>
    <g fill="rgb(255,204,0)" text-rendering="geometricPrecision" shape-rendering="geometricPrecision" transform="matrix(1,0,0,1,339,163)" stroke="rgb(255,204,0)">
      <path d="M-323.6306 -147.9355 L-199.4306 -147.9355 L-199.4306 -132.9355 L-184.4306 -132.9355 L-184.4306 -119.9355 L-323.6306 -119.9355 Z" stroke="none" clip-path="url(#clipPath2)"/>
      <path fill="white" d="M-199.4306 -147.9355 L-199.4306 -132.9355 L-184.4306 -132.9355 Z" clip-path="url(#clipPath2)" fill-rule="evenodd" stroke="none"/>
    </g>
    <g text-rendering="geometricPrecision" stroke-miterlimit="1.45" shape-rendering="geometricPrecision" transform="matrix(1,0,0,1,339,163)" stroke-linecap="butt">
      <path fill="none" d="M-323.6306 -147.9355 L-199.4306 -147.9355 L-199.4306 -132.9355 L-184.4306 -132.9355 L-184.4306 -119.9355 L-323.6306 -119.9355 Z" clip-path="url(#clipPath2)"/>
      <path fill="none" d="M-199.4306 -147.9355 L-199.4306 -132.9355 L-184.4306 -132.9355 Z" clip-path="url(#clipPath2)" fill-rule="evenodd"/>
      <text x="-280.7054" xml:space="preserve" y="-129.2216" clip-path="url(#clipPath2)" font-family="sans-serif" stroke="none">Host Start</text>
    </g>
    <g fill="gray" text-rendering="geometricPrecision" shape-rendering="geometricPrecision" transform="matrix(1,0,0,1,339,163)" stroke="gray">
      <rect x="0" width="10" height="30" y="6.3655" clip-path="url(#clipPath2)" stroke="none"/>
    </g>
    <g text-rendering="geometricPrecision" stroke-miterlimit="1.45" shape-rendering="geometricPrecision" transform="matrix(1,0,0,1,339,163)" stroke-linecap="butt">
      <rect fill="none" x="0" width="10" height="30" y="6.3655" clip-path="url(#clipPath2)"/>
    </g>
    <g fill="gray" text-rendering="geometricPrecision" shape-rendering="geometricPrecision" transform="matrix(1,0,0,1,339,163)" stroke="gray">
      <rect x="-0" width="10" height="30" y="186.3655" clip-path="url(#clipPath2)" stroke="none"/>
    </g>
    <g text-rendering="geometricPrecision" stroke-miterlimit="1.45" shape-rendering="geometricPrecision" transform="matrix(1,0,0,1,339,163)" stroke-linecap="butt">
      <rect fill="none" x="-0" width="10" height="30" y="186.3655" clip-path="url(#clipPath2)"/>
      <path fill="none" stroke-dasharray="6,2" d="M168.3404 -23.6033 L168.3404 66.3655" clip-path="url(#clipPath2)"/>
      <path fill="none" d="M10 81.3655 L155.3404 81.3655" clip-path="url(#clipPath2)"/>
      <path d="M163.3404 81.3655 L151.3404 76.3655 L154.3404 81.3655 L151.3404 86.3655 Z" clip-path="url(#clipPath2)" stroke="none"/>
      <text x="58.0075" xml:space="preserve" y="70.9372" clip-path="url(#clipPath2)" font-family="sans-serif" stroke="none">startClient()</text>
      <path fill="none" d="M168.3404 96.3655 L168.3404 118.3655" clip-path="url(#clipPath2)"/>
      <path d="M168.3404 126.3655 L173.3404 114.3655 L168.3404 117.3655 L163.3404 114.3655 Z" clip-path="url(#clipPath2)" stroke="none"/>
      <path fill="none" stroke-dasharray="6,2" d="M5 96.3655 L5 126.3655" clip-path="url(#clipPath2)"/>
      <path fill="none" d="M163.3404 141.3655 L18 141.3655" clip-path="url(#clipPath2)"/>
      <path d="M10 141.3655 L22 146.3655 L19 141.3655 L22 136.3655 Z" clip-path="url(#clipPath2)" stroke="none"/>
      <text x="64.2417" xml:space="preserve" y="134.2973" clip-path="url(#clipPath2)" font-family="sans-serif" stroke="none">clientId</text>
      <path fill="none" d="M10 261.3655 L155.3404 261.3655" clip-path="url(#clipPath2)"/>
      <path d="M163.3404 261.3655 L151.3404 256.3655 L154.3404 261.3655 L151.3404 266.3655 Z" clip-path="url(#clipPath2)" stroke="none"/>
      <text x="57.9915" xml:space="preserve" y="253.0714" clip-path="url(#clipPath2)" font-family="sans-serif" stroke="none">getModel()</text>
      <path fill="none" stroke-dasharray="6,2" d="M168.3404 156.3655 L168.3404 246.3655" clip-path="url(#clipPath2)"/>
      <path fill="none" d="M168.3404 276.3655 L168.3404 298.3655" clip-path="url(#clipPath2)"/>
      <path d="M168.3404 306.3655 L173.3404 294.3655 L168.3404 297.3655 L163.3404 294.3655 Z" clip-path="url(#clipPath2)" stroke="none"/>
      <path fill="none" d="M163.3404 321.3655 L18 321.3655" clip-path="url(#clipPath2)"/>
      <path d="M10 321.3655 L22 326.3655 L19 321.3655 L22 316.3655 Z" clip-path="url(#clipPath2)" stroke="none"/>
      <text x="70.7506" xml:space="preserve" y="313.9773" clip-path="url(#clipPath2)" font-family="sans-serif" stroke="none">model</text>
      <path fill="none" stroke-dasharray="6,2" d="M5 276.3655 L5 306.3655" clip-path="url(#clipPath2)"/>
      <path fill="none" d="M5 336.3655 L5 358.3655" clip-path="url(#clipPath2)"/>
      <path d="M5 366.3655 L10 354.3655 L5 357.3655 L0 354.3655 Z" clip-path="url(#clipPath2)" stroke="none"/>
      <path fill="none" d="M0.0152 369.7459 L-2.1107 367.9919 L-4.8502 366.5049 L-7.8776 365.5652 L-11.128 365.2375 L-14.3783 365.5652 L-17.4057 366.5049 L-20.1453 367.9919 L-22.5322 369.9613 L-24.5016 372.3481 L-25.9886 375.0877 L-26.9283 378.1151 L-27.256 381.3655 L-26.9283 384.6158 L-25.9886 387.6432 L-24.5016 390.3828 L-22.5322 392.7697 L-20.1453 394.7391 L-17.4058 396.2261 L-14.3784 397.1658 L-11.128 397.4935 L-7.8777 397.1658 L-6.9704 396.8842 L-6.8871 396.8287" clip-path="url(#clipPath2)"/>
      <path d="M0.1022 392.9366 L-12.8144 394.4065 L-7.7608 397.3153 L-7.9492 403.1432 Z" clip-path="url(#clipPath2)" stroke="none"/>
      <text x="-105.6078" xml:space="preserve" y="383.4204" clip-path="url(#clipPath2)" font-family="sans-serif" stroke="none">importModel()</text>
      <path fill="none" stroke-dasharray="6,2" d="M168.3404 336.3655 L168.3404 426.3655" clip-path="url(#clipPath2)"/>
      <path fill="none" stroke-dasharray="6,2" d="M5 396.3655 L5 426.3655" clip-path="url(#clipPath2)"/>
      <path fill="none" d="M-249.0481 34.165 L-248.4071 34.942 L-245.5655 37.2864 L-242.3041 39.0567 L-238.7001 40.1754 L-234.8306 40.5655 L-230.9611 40.1754 L-227.3571 39.0567 L-224.0957 37.2864 L-221.2542 34.942 L-218.9097 32.1004 L-217.1394 28.839 L-216.0207 25.235 L-215.6306 21.3655 L-216.0207 17.496 L-217.1394 13.892 L-218.9097 10.6306 L-221.2542 7.7891 L-224.0957 5.4446 L-227.3571 3.6743 L-230.9611 2.5556 L-234.8306 2.1655 L-238.7001 2.5556 L-242.3041 3.6743 L-242.5979 3.8338 L-242.6723 3.9005" clip-path="url(#clipPath2)"/>
      <path d="M-249.1284 8.6248 L-236.4916 5.5735 L-241.8653 3.31 L-242.397 -2.4967 Z" clip-path="url(#clipPath2)" stroke="none"/>
      <text x="-209.2068" xml:space="preserve" y="25.2871" clip-path="url(#clipPath2)" font-family="sans-serif" stroke="none">startUnityServer()</text>
      <path fill="none" stroke-dasharray="6,2" d="M-254.0306 -23.6389 L-254.0306 6.3655" clip-path="url(#clipPath2)"/>
      <path fill="none" stroke-dasharray="6,2" d="M-254.0306 36.3655 L-254.0306 66.3655" clip-path="url(#clipPath2)"/>
      <path fill="none" d="M-249.0451 93.8869 L-248.6414 94.3763 L-245.9182 96.6231 L-242.7927 98.3195 L-239.3389 99.3917 L-235.6306 99.7655 L-231.9224 99.3917 L-228.4685 98.3195 L-225.343 96.6231 L-222.6198 94.3763 L-220.373 91.6531 L-218.6766 88.5276 L-217.6044 85.0737 L-217.2306 81.3655 L-217.6044 77.6573 L-218.6766 74.2034 L-220.373 71.0779 L-222.6198 68.3547 L-225.343 66.1079 L-228.4685 64.4115 L-231.9224 63.3393 L-235.6306 62.9655 L-239.3389 63.3393 L-242.4561 64.307 L-242.5377 64.3648" clip-path="url(#clipPath2)"/>
      <path d="M-249.1275 68.9007 L-236.4078 66.2154 L-241.714 63.7978 L-242.0777 57.9782 Z" clip-path="url(#clipPath2)" stroke="none"/>
      <text x="-209.4738" xml:space="preserve" y="84.4871" clip-path="url(#clipPath2)" font-family="sans-serif" stroke="none">startWebServer()</text>
      <path fill="none" stroke-dasharray="6,2" d="M-254.0306 96.3655 L-254.0306 126.3655" clip-path="url(#clipPath2)"/>
      <path fill="none" stroke-dasharray="6,2" d="M5 -30.0112 L5 6.3655" clip-path="url(#clipPath2)"/>
      <path fill="none" d="M9.9863 34.0287 L10.5064 34.6591 L13.2887 36.9548 L16.4822 38.6881 L20.0111 39.7836 L23.8 40.1655 L27.5889 39.7836 L31.1178 38.6881 L34.3113 36.9548 L37.0936 34.6591 L39.3893 31.8768 L41.1226 28.6833 L42.218 25.1544 L42.6 21.3655 L42.218 17.5766 L41.1226 14.0477 L39.3893 10.8542 L37.0936 8.0719 L34.3113 5.7762 L31.1178 4.0429 L27.5889 2.9475 L23.8 2.5655 L20.0111 2.9475 L16.4881 4.0411 L16.4068 4.0994" clip-path="url(#clipPath2)"/>
      <path d="M9.905 8.7605 L22.571 5.8324 L17.2195 3.5167 L16.7445 -2.2949 Z" clip-path="url(#clipPath2)" stroke="none"/>
      <text x="48.8213" xml:space="preserve" y="24.7139" clip-path="url(#clipPath2)" font-family="sans-serif" stroke="none">resolveServerIP()</text>
      <path fill="none" d="M5 36.3655 L5 58.3655" clip-path="url(#clipPath2)"/>
      <path d="M5 66.3655 L10 54.3655 L5 57.3655 L0 54.3655 Z" clip-path="url(#clipPath2)" stroke="none"/>
      <path fill="none" d="M9.9855 213.8869 L10.3892 214.3763 L13.1124 216.6231 L16.2379 218.3195 L19.6918 219.3917 L23.4 219.7655 L27.1082 219.3917 L30.5621 218.3195 L33.6876 216.6231 L36.4108 214.3763 L38.6576 211.6531 L40.354 208.5276 L41.4262 205.0737 L41.8 201.3655 L41.4262 197.6573 L40.354 194.2034 L38.6576 191.0779 L36.4108 188.3547 L33.6876 186.1079 L30.5621 184.4115 L27.1082 183.3393 L23.4 182.9655 L19.6918 183.3393 L16.5745 184.307 L16.4929 184.3648" clip-path="url(#clipPath2)"/>
      <path d="M9.9031 188.9007 L22.6228 186.2154 L17.3167 183.7978 L16.9529 177.9782 Z" clip-path="url(#clipPath2)" stroke="none"/>
      <text x="47.4621" xml:space="preserve" y="206.0871" clip-path="url(#clipPath2)" font-family="sans-serif" stroke="none">setColor()</text>
      <path fill="none" d="M5 156.3655 L5 178.3655" clip-path="url(#clipPath2)"/>
      <path d="M5 186.3655 L10 174.3655 L5 177.3655 L0 174.3655 Z" clip-path="url(#clipPath2)" stroke="none"/>
      <path fill="none" d="M5 216.3655 L5 238.3655" clip-path="url(#clipPath2)"/>
      <path d="M5 246.3655 L10 234.3655 L5 237.3655 L0 234.3655 Z" clip-path="url(#clipPath2)" stroke="none"/>
    </g>
  </g>
</svg>
