<?xml version="1.0" encoding="UTF-8"?><svg xmlns="http://www.w3.org/2000/svg" xmlns:xlink="http://www.w3.org/1999/xlink" fill-opacity="1" color-rendering="auto" color-interpolation="auto" text-rendering="auto" stroke="black" stroke-linecap="square" width="582" stroke-miterlimit="10" shape-rendering="auto" stroke-opacity="1" fill="black" stroke-dasharray="none" font-weight="normal" stroke-width="1" height="582" font-family="'Dialog'" font-style="normal" stroke-linejoin="miter" font-size="12px" stroke-dashoffset="0" image-rendering="auto">
  <!--Generated by ySVG 2.5-->
  <defs id="genericDefs"/>
  <g>
    <g fill="white" text-rendering="geometricPrecision" shape-rendering="geometricPrecision" transform="translate(-800,-469)" stroke="white">
      <rect x="800" width="582" height="582" y="469" clip-path="url(#clipPath2)" stroke="none"/>
    </g>
    <g fill="gray" text-rendering="geometricPrecision" shape-rendering="geometricPrecision" transform="matrix(1,0,0,1,-800,-469)" stroke="gray">
      <rect x="923.771" width="10" height="30" y="638.8655" clip-path="url(#clipPath2)" stroke="none"/>
    </g>
    <g text-rendering="geometricPrecision" stroke-miterlimit="1.45" shape-rendering="geometricPrecision" transform="matrix(1,0,0,1,-800,-469)" stroke-linecap="butt">
      <rect fill="none" x="923.771" width="10" height="30" y="638.8655" clip-path="url(#clipPath2)"/>
    </g>
    <g text-rendering="geometricPrecision" shape-rendering="geometricPrecision" transform="matrix(1,0,0,1,94.958,87.746)">
      <g clip-path="url(#clipPath3)">
        <svg xml:space="preserve" opacity="1" writing-mode="lr-tb" stop-color="rgb(0, 0, 0)" shape-rendering="auto" glyph-orientation-horizontal="0deg" color-profile="auto" lighting-color="rgb(255, 255, 255)" color="rgb(0, 0, 0)" font-weight="400" alignment-baseline="auto" font-style="normal" version="1.1" color-interpolation-filters="linearrgb" text-anchor="start" stroke-linecap="butt" color-interpolation="srgb" font-variant="normal" word-spacing="normal" fill-opacity="1" text-rendering="auto" clip-path="none" text-decoration="none" letter-spacing="normal" viewBox="-0.064 -0.075 68 46" glyph-orientation-vertical="auto" display="inline" font-size-adjust="none" overflow="hidden" fill="rgb(0, 0, 0)" font-stretch="normal" stroke-dasharray="none" stroke-miterlimit="4" stop-opacity="1" color-rendering="auto" font-size="12" pointer-events="visiblepainted" mask="none" direction="ltr" baseline-shift="baseline" enable-background="new -0.064 -0.075 68 46" fill-rule="nonzero" image-rendering="auto" stroke-dashoffset="0" width="68px" marker-end="none" clip="auto" cursor="auto" stroke="none" filter="none" visibility="visible" kerning="auto" stroke-width="1" font-family="&quot;Arial&quot;,&quot;Helvetica&quot;,sans-serif" flood-opacity="1" clip-rule="nonzero" src="none" height="46px" unicode-bidi="normal" stroke-linejoin="miter" stroke-opacity="1" flood-color="rgb(0, 0, 0)" dominant-baseline="auto" marker-start="none" x="0px" marker-mid="none" y="0px">
<defs>
<clipPath clipPathUnits="userSpaceOnUse" id="clipPath1"><path d="M0 0 L582 0 L582 582 L0 582 L0 0 Z"/></clipPath><clipPath clipPathUnits="userSpaceOnUse" id="clipPath2"><path d="M800 469 L1382 469 L1382 1051 L800 1051 L800 469 Z"/></clipPath><clipPath clipPathUnits="userSpaceOnUse" id="clipPath3"><path d="M-94.958 -87.746 L487.042 -87.746 L487.042 494.254 L-94.958 494.254 L-94.958 -87.746 Z"/></clipPath><clipPath clipPathUnits="userSpaceOnUse" id="clipPath4"><path d="M-273.6473 -81.2155 L308.3527 -81.2155 L308.3527 500.7845 L-273.6473 500.7845 L-273.6473 -81.2155 Z"/></clipPath><clipPath clipPathUnits="userSpaceOnUse" id="clipPath5"><path d="M-421.6388 -87.746 L160.3612 -87.746 L160.3612 494.254 L-421.6388 494.254 L-421.6388 -87.746 Z"/></clipPath></defs>
<radialGradient gradientTransform="matrix(1.15 0 0 1 -526.6598 -1982.4023)" id="svg1.SVGID_1_" r="21.6001" cx="478.8413" gradientUnits="userSpaceOnUse" cy="1991.2729">
	<stop offset="0" style="stop-color:#F2F2F2"/>
	<stop offset="1" style="stop-color:#8D8D8D"/>
</radialGradient>
<path fill="url(#svg1.SVGID_1_)" d="M10.263,1.903c0-0.987,0.807-1.794,1.794-1.794h43.279c0.986,0,1.795,0.807,1.795,1.794v26.978  c0,0.987-0.809,1.794-1.795,1.794h-43.28c-0.987,0-1.794-0.807-1.794-1.794L10.263,1.903L10.263,1.903z"/>
<path stroke-linecap="round" display="none" fill="none" stroke-linejoin="round" d="  M10.263,1.903c0-0.987,0.807-1.794,1.794-1.794h43.279c0.986,0,1.795,0.807,1.795,1.794v26.978c0,0.987-0.809,1.794-1.795,1.794  h-43.28c-0.987,0-1.794-0.807-1.794-1.794L10.263,1.903L10.263,1.903z" stroke="#3C89C9" stroke-width="0.2185" stroke-miterlimit="10"/>
<radialGradient gradientTransform="matrix(1.1935 0 0 1 -509.6731 -1982.4023)" gradientUnits="userSpaceOnUse" r="47.8462" cx="455.894" id="svg1.SVGID_2_" cy="1983.9624" fx="493.5344" fy="1977.5143">
	<stop offset="0" style="stop-color:#4D4D4D"/>
	<stop offset="1" style="stop-color:#999999"/>
</radialGradient>
<path fill="url(#svg1.SVGID_2_)" d="M11.18,2.819c0-0.987,0.807-1.794,1.794-1.794h41.649c0.986,0,1.795,0.807,1.795,1.794v24.943  c0,0.985-0.809,1.794-1.795,1.794H12.974c-0.987,0-1.794-0.809-1.794-1.794V2.819z"/>
<radialGradient gradientTransform="matrix(1.1923 0 0 1 -510.1314 -1982.4023)" id="svg1.SVGID_3_" r="30.6699" cx="456.8843" gradientUnits="userSpaceOnUse" cy="1984.0386">
	<stop offset="0" style="stop-color:#9CD7FF"/>
	<stop offset="1" style="stop-color:#3C89C9"/>
</radialGradient>
<path fill="url(#svg1.SVGID_3_)" d="M11.689,3.228c0-0.987,0.807-1.794,1.794-1.794h40.633c0.986,0,1.795,0.807,1.795,1.794v24.126  c0,0.986-0.809,1.794-1.795,1.794H13.483c-0.987,0-1.794-0.809-1.794-1.794V3.228z"/>
<path fill="#F2F2F2" opacity="0.24" d="M11.689,21.472V3.228c0-0.987,0.807-1.794,1.794-1.794h40.633  c0.986,0,1.795,0.807,1.795,1.794v9.454c0,0.987-10.518,5.21-18.256,6.795C29.917,21.062,11.689,21.472,11.689,21.472z"/>
<linearGradient gradientTransform="matrix(1 0 0 -1 -97.6001 -165.0498)" x1="131.3501" x2="131.3501" gradientUnits="userSpaceOnUse" y1="-212.2612" y2="-170.6274" id="svg1.SVGID_4_">
	<stop offset="0" style="stop-color:#4D4D4D"/>
	<stop offset="0.0667" style="stop-color:#717171"/>
	<stop offset="0.069" style="stop-color:#757575"/>
	<stop offset="0.0831" style="stop-color:#8C8C8C"/>
	<stop offset="0.0996" style="stop-color:#9E9E9E"/>
	<stop offset="0.1196" style="stop-color:#AAAAAA"/>
	<stop offset="0.1466" style="stop-color:#B1B1B1"/>
	<stop offset="0.2121" style="stop-color:#B3B3B3"/>
	<stop offset="1" style="stop-color:#C5C5C5"/>
</linearGradient>
<path fill="url(#svg1.SVGID_4_)" d="M58.385,32.234c-0.689-0.856-2.154-1.559-3.254-1.559H12c-1.1,0-2.552,0.711-3.227,1.579  l-7.546,9.717C0,43.55,0.042,43.785,0,44.55v0.125c0.056,0.393,0.311,1.002,1.248,1.002h64.75c0.75,0.002,1.5-0.252,1.5-1.002V44.55  c0-0.813,0-0.813-1.254-2.559L58.385,32.234z"/>
<path fill="#F2F2F2" d="M58.385,32.234c-0.689-0.856-2.154-1.559-3.254-1.559H12  c-1.1,0-2.552,0.711-3.227,1.579l-7.055,9.085l58.098-7.33L58.385,32.234z" enable-background="new    " opacity="0.23"/>
<path fill="#6E6E6E" d="M59.75,37.205c0.344,0.431,0.172,0.783-0.377,0.783H8.249c-0.55,0-0.742-0.369-0.427-0.819l2.786-3.986  c0.315-0.45,1.023-0.819,1.573-0.819h42.729c0.551,0,1.279,0.354,1.623,0.783L59.75,37.205z"/>
<path fill="#6E6E6E" d="M40.43,41.906c0.072,0.217-0.057,0.395-0.285,0.395H26.727c-0.229,0-0.364-0.18-0.3-0.398l0.822-2.826  c0.064-0.221,0.303-0.399,0.532-0.399h11.167c0.229,0,0.475,0.179,0.547,0.396L40.43,41.906z"/>
</svg>
      </g>
    </g>
    <g text-rendering="geometricPrecision" stroke-miterlimit="1.45" shape-rendering="geometricPrecision" font-family="sans-serif" transform="matrix(1,0,0,1,-800,-469)" stroke-linecap="butt">
      <text x="910.0942" xml:space="preserve" y="548.2933" clip-path="url(#clipPath2)" stroke="none">Client1</text>
    </g>
    <g text-rendering="geometricPrecision" shape-rendering="geometricPrecision" transform="matrix(1,0,0,1,273.6473,81.2155)">
      <g clip-path="url(#clipPath4)">
        <svg xml:space="preserve" opacity="1" writing-mode="lr-tb" stop-color="rgb(0, 0, 0)" shape-rendering="auto" glyph-orientation-horizontal="0deg" color-profile="auto" lighting-color="rgb(255, 255, 255)" color="rgb(0, 0, 0)" font-weight="400" alignment-baseline="auto" font-style="normal" version="1.1" color-interpolation-filters="linearrgb" text-anchor="start" stroke-linecap="butt" color-interpolation="srgb" font-variant="normal" word-spacing="normal" fill-opacity="1" text-rendering="auto" clip-path="none" text-decoration="none" letter-spacing="normal" viewBox="-0.569 -0.349 37 59" glyph-orientation-vertical="auto" display="inline" font-size-adjust="none" overflow="hidden" fill="rgb(0, 0, 0)" font-stretch="normal" stroke-dasharray="none" stroke-miterlimit="4" stop-opacity="1" color-rendering="auto" font-size="12" pointer-events="visiblepainted" mask="none" direction="ltr" baseline-shift="baseline" enable-background="new -0.569 -0.349 37 59" fill-rule="nonzero" image-rendering="auto" stroke-dashoffset="0" width="37px" marker-end="none" clip="auto" cursor="auto" stroke="none" filter="none" visibility="visible" kerning="auto" stroke-width="1" font-family="&quot;Arial&quot;,&quot;Helvetica&quot;,sans-serif" flood-opacity="1" clip-rule="nonzero" src="none" height="59px" unicode-bidi="normal" stroke-linejoin="miter" stroke-opacity="1" flood-color="rgb(0, 0, 0)" dominant-baseline="auto" marker-start="none" x="0px" marker-mid="none" y="0px">
<defs>
</defs>
<linearGradient gradientTransform="matrix(1 0 0 -1 -97.6001 -161.5986)" x1="115.7744" x2="115.7743" gradientUnits="userSpaceOnUse" y1="-158.8057" y2="-219.9759" id="svg2.SVGID_1_">
	<stop offset="0" style="stop-color:#B3B3B3"/>
	<stop offset="0.164" style="stop-color:#ABABAB"/>
	<stop offset="0.4188" style="stop-color:#959595"/>
	<stop offset="0.7308" style="stop-color:#717171"/>
	<stop offset="1" style="stop-color:#4D4D4D"/>
</linearGradient>
<path fill="url(#svg2.SVGID_1_)" d="M35.79,55.773c0,1.392-1.137,2.528-2.527,2.528H3.086c-1.39,0-2.528-1.139-2.528-2.528V2.528  C0.559,1.138,1.697,0,3.086,0h30.176c1.391,0,2.527,1.138,2.527,2.528V55.773z"/>
<linearGradient gradientTransform="matrix(1 0 0 -1 -97.6001 -161.5986)" x1="115.7744" x2="115.7743" gradientUnits="userSpaceOnUse" y1="-158.8057" y2="-219.9759" id="svg2.SVGID_2_">
	<stop offset="0" style="stop-color:#B3B3B3"/>
	<stop offset="0.164" style="stop-color:#ABABAB"/>
	<stop offset="0.4188" style="stop-color:#959595"/>
	<stop offset="0.7308" style="stop-color:#717171"/>
	<stop offset="1" style="stop-color:#4D4D4D"/>
</linearGradient>
<path fill="url(#svg2.SVGID_2_)" d="M35.79,55.773c0,1.392-1.137,2.528-2.527,2.528H3.086c-1.39,0-2.528-1.139-2.528-2.528V2.528  C0.559,1.138,1.697,0,3.086,0h30.176c1.391,0,2.527,1.138,2.527,2.528V55.773z"/>
<path fill="#FFFFFF" opacity="0.19" d="M35.79,39.342L0.559,26.702V2.529c0-1.391,1.138-2.528,2.528-2.528h30.176  c1.391,0,2.527,1.138,2.527,2.528V39.342z"/>
<path fill="#353535" d="M32.868,53.717c0,1.392-1.138,2.529-2.527,2.529H11.854c-1.39,0-2.528-1.139-2.528-2.529V11.534  c0-1.39,1.138-2.528,2.528-2.528H30.34c1.391,0,2.528,1.138,2.528,2.528V53.717L32.868,53.717z"/>
<linearGradient gradientTransform="matrix(1 0 0 -1 -97.6001 -161.5986)" x1="123.9893" x2="123.9893" gradientUnits="userSpaceOnUse" y1="-171.4683" y2="-215.0464" id="svg2.SVGID_3_">
	<stop offset="0" style="stop-color:#B3B3B3"/>
	<stop offset="0.164" style="stop-color:#ABABAB"/>
	<stop offset="0.4188" style="stop-color:#959595"/>
	<stop offset="0.7308" style="stop-color:#717171"/>
	<stop offset="1" style="stop-color:#4D4D4D"/>
</linearGradient>
<path fill="url(#svg2.SVGID_3_)" d="M30.34,52.129c0,0.695-0.568,1.265-1.265,1.265h-5.371c-0.695,0-1.265-0.568-1.265-1.265V13.123  c0-0.695,0.568-1.264,1.265-1.264h5.371c0.695,0,1.265,0.569,1.265,1.264V52.129z"/>
<linearGradient gradientTransform="matrix(1 0 0 -1 -97.6001 -161.5986)" x1="113.4834" x2="113.4834" gradientUnits="userSpaceOnUse" y1="-171.4683" y2="-215.0464" id="svg2.SVGID_4_">
	<stop offset="0" style="stop-color:#B3B3B3"/>
	<stop offset="0.164" style="stop-color:#ABABAB"/>
	<stop offset="0.4188" style="stop-color:#959595"/>
	<stop offset="0.7308" style="stop-color:#717171"/>
	<stop offset="1" style="stop-color:#4D4D4D"/>
</linearGradient>
<path fill="url(#svg2.SVGID_4_)" d="M19.833,52.129c0,0.695-0.567,1.265-1.264,1.265h-5.372c-0.695,0-1.264-0.568-1.264-1.265V13.123  c0-0.695,0.569-1.264,1.264-1.264h5.372c0.695,0,1.264,0.569,1.264,1.264V52.129z"/>
<linearGradient gradientTransform="matrix(1 0 0 -1 -97.6001 -161.5986)" x1="123.9932" x2="123.9932" gradientUnits="userSpaceOnUse" y1="-215.5532" y2="-209.4927" id="svg2.SVGID_5_">
	<stop offset="0" style="stop-color:#8D8D8D"/>
	<stop offset="0.2282" style="stop-color:#858585"/>
	<stop offset="0.5829" style="stop-color:#6F6F6F"/>
	<stop offset="1" style="stop-color:#4D4D4D"/>
</linearGradient>
<rect x="23.362" fill="url(#svg2.SVGID_5_)" width="6.06" y="45.948" height="6.061"/>
<linearGradient gradientTransform="matrix(1 0 0 -1 -97.6001 -161.5986)" x1="113.4834" x2="113.4834" gradientUnits="userSpaceOnUse" y1="-215.4204" y2="-209.3599" id="svg2.SVGID_6_">
	<stop offset="0" style="stop-color:#8D8D8D"/>
	<stop offset="0.2282" style="stop-color:#858585"/>
	<stop offset="0.5829" style="stop-color:#6F6F6F"/>
	<stop offset="1" style="stop-color:#4D4D4D"/>
</linearGradient>
<rect x="12.854" fill="url(#svg2.SVGID_6_)" width="6.06" y="45.815" height="6.061"/>
<rect x="12.854" fill="#6E6E6E" width="6.06" y="24.328" height="15.014"/>
<rect x="23.36" fill="#6E6E6E" width="6.061" y="24.328" height="15.014"/>
<rect x="0.071" y="50.68" fill="#C8FF00" width="5.709" height="2.898" stroke="#717171" stroke-width="0.1416" stroke-miterlimit="10"/>
<radialGradient gradientTransform="matrix(1 0 0 -1 -97.6001 -161.5986)" id="svg2.SVGID_7_" r="3.221" cx="124.1484" gradientUnits="userSpaceOnUse" cy="-180.064">
	<stop offset="0" style="stop-color:#8D8D8D"/>
	<stop offset="0.2282" style="stop-color:#858585"/>
	<stop offset="0.5829" style="stop-color:#6F6F6F"/>
	<stop offset="1" style="stop-color:#4D4D4D"/>
</radialGradient>
<circle fill="url(#svg2.SVGID_7_)" r="2.296" cx="26.391" cy="18.307" stroke="#666666" stroke-width="0.632" stroke-miterlimit="10"/>
<radialGradient gradientTransform="matrix(1 0 0 -1 -97.6001 -161.5986)" id="svg2.SVGID_8_" r="3.2209" cx="113.6426" gradientUnits="userSpaceOnUse" cy="-180.064">
	<stop offset="0" style="stop-color:#8D8D8D"/>
	<stop offset="0.2282" style="stop-color:#858585"/>
	<stop offset="0.5829" style="stop-color:#6F6F6F"/>
	<stop offset="1" style="stop-color:#4D4D4D"/>
</radialGradient>
<circle fill="url(#svg2.SVGID_8_)" r="2.295" cx="15.885" cy="18.307" stroke="#666666" stroke-width="0.632" stroke-miterlimit="10"/>
</svg>
      </g>
    </g>
    <g text-rendering="geometricPrecision" stroke-miterlimit="1.45" shape-rendering="geometricPrecision" font-family="sans-serif" transform="matrix(1,0,0,1,-800,-469)" stroke-linecap="butt">
      <text x="1079.7745" xml:space="preserve" y="541.9278" clip-path="url(#clipPath2)" stroke="none">Host</text>
    </g>
    <g fill="gray" text-rendering="geometricPrecision" shape-rendering="geometricPrecision" transform="matrix(1,0,0,1,-800,-469)" stroke="gray">
      <rect x="1087.1114" width="10" height="30" y="638.8655" clip-path="url(#clipPath2)" stroke="none"/>
    </g>
    <g text-rendering="geometricPrecision" stroke-miterlimit="1.45" shape-rendering="geometricPrecision" transform="matrix(1,0,0,1,-800,-469)" stroke-linecap="butt">
      <rect fill="none" x="1087.1114" width="10" height="30" y="638.8655" clip-path="url(#clipPath2)"/>
    </g>
    <g fill="gray" text-rendering="geometricPrecision" shape-rendering="geometricPrecision" transform="matrix(1,0,0,1,-800,-469)" stroke="gray">
      <rect x="1087.1114" width="10" height="30" y="698.8655" clip-path="url(#clipPath2)" stroke="none"/>
    </g>
    <g text-rendering="geometricPrecision" stroke-miterlimit="1.45" shape-rendering="geometricPrecision" transform="matrix(1,0,0,1,-800,-469)" stroke-linecap="butt">
      <rect fill="none" x="1087.1114" width="10" height="30" y="698.8655" clip-path="url(#clipPath2)"/>
    </g>
    <g fill="gray" text-rendering="geometricPrecision" shape-rendering="geometricPrecision" transform="matrix(1,0,0,1,-800,-469)" stroke="gray">
      <rect x="923.771" width="10" height="30" y="758.8655" clip-path="url(#clipPath2)" stroke="none"/>
    </g>
    <g text-rendering="geometricPrecision" stroke-miterlimit="1.45" shape-rendering="geometricPrecision" transform="matrix(1,0,0,1,-800,-469)" stroke-linecap="butt">
      <rect fill="none" x="923.771" width="10" height="30" y="758.8655" clip-path="url(#clipPath2)"/>
    </g>
    <g text-rendering="geometricPrecision" shape-rendering="geometricPrecision" transform="matrix(1,0,0,1,421.6388,87.746)">
      <g clip-path="url(#clipPath5)">
        <svg xml:space="preserve" opacity="1" writing-mode="lr-tb" stop-color="rgb(0, 0, 0)" shape-rendering="auto" glyph-orientation-horizontal="0deg" color-profile="auto" lighting-color="rgb(255, 255, 255)" color="rgb(0, 0, 0)" font-weight="400" alignment-baseline="auto" font-style="normal" version="1.1" color-interpolation-filters="linearrgb" text-anchor="start" stroke-linecap="butt" color-interpolation="srgb" font-variant="normal" word-spacing="normal" fill-opacity="1" text-rendering="auto" clip-path="none" text-decoration="none" letter-spacing="normal" viewBox="-0.064 -0.075 68 46" glyph-orientation-vertical="auto" display="inline" font-size-adjust="none" overflow="hidden" fill="rgb(0, 0, 0)" font-stretch="normal" stroke-dasharray="none" stroke-miterlimit="4" stop-opacity="1" color-rendering="auto" font-size="12" pointer-events="visiblepainted" mask="none" direction="ltr" baseline-shift="baseline" enable-background="new -0.064 -0.075 68 46" fill-rule="nonzero" image-rendering="auto" stroke-dashoffset="0" width="68px" marker-end="none" clip="auto" cursor="auto" stroke="none" filter="none" visibility="visible" kerning="auto" stroke-width="1" font-family="&quot;Arial&quot;,&quot;Helvetica&quot;,sans-serif" flood-opacity="1" clip-rule="nonzero" src="none" height="46px" unicode-bidi="normal" stroke-linejoin="miter" stroke-opacity="1" flood-color="rgb(0, 0, 0)" dominant-baseline="auto" marker-start="none" x="0px" marker-mid="none" y="0px">
<defs>
</defs>
<radialGradient gradientTransform="matrix(1.15 0 0 1 -526.6598 -1982.4023)" id="svg3.SVGID_1_" r="21.6001" cx="478.8413" gradientUnits="userSpaceOnUse" cy="1991.2729">
	<stop offset="0" style="stop-color:#F2F2F2"/>
	<stop offset="1" style="stop-color:#8D8D8D"/>
</radialGradient>
<path fill="url(#svg3.SVGID_1_)" d="M10.263,1.903c0-0.987,0.807-1.794,1.794-1.794h43.279c0.986,0,1.795,0.807,1.795,1.794v26.978  c0,0.987-0.809,1.794-1.795,1.794h-43.28c-0.987,0-1.794-0.807-1.794-1.794L10.263,1.903L10.263,1.903z"/>
<path stroke-linecap="round" display="none" fill="none" stroke-linejoin="round" d="  M10.263,1.903c0-0.987,0.807-1.794,1.794-1.794h43.279c0.986,0,1.795,0.807,1.795,1.794v26.978c0,0.987-0.809,1.794-1.795,1.794  h-43.28c-0.987,0-1.794-0.807-1.794-1.794L10.263,1.903L10.263,1.903z" stroke="#3C89C9" stroke-width="0.2185" stroke-miterlimit="10"/>
<radialGradient gradientTransform="matrix(1.1935 0 0 1 -509.6731 -1982.4023)" gradientUnits="userSpaceOnUse" r="47.8462" cx="455.894" id="svg3.SVGID_2_" cy="1983.9624" fx="493.5344" fy="1977.5143">
	<stop offset="0" style="stop-color:#4D4D4D"/>
	<stop offset="1" style="stop-color:#999999"/>
</radialGradient>
<path fill="url(#svg3.SVGID_2_)" d="M11.18,2.819c0-0.987,0.807-1.794,1.794-1.794h41.649c0.986,0,1.795,0.807,1.795,1.794v24.943  c0,0.985-0.809,1.794-1.795,1.794H12.974c-0.987,0-1.794-0.809-1.794-1.794V2.819z"/>
<radialGradient gradientTransform="matrix(1.1923 0 0 1 -510.1314 -1982.4023)" id="svg3.SVGID_3_" r="30.6699" cx="456.8843" gradientUnits="userSpaceOnUse" cy="1984.0386">
	<stop offset="0" style="stop-color:#9CD7FF"/>
	<stop offset="1" style="stop-color:#3C89C9"/>
</radialGradient>
<path fill="url(#svg3.SVGID_3_)" d="M11.689,3.228c0-0.987,0.807-1.794,1.794-1.794h40.633c0.986,0,1.795,0.807,1.795,1.794v24.126  c0,0.986-0.809,1.794-1.795,1.794H13.483c-0.987,0-1.794-0.809-1.794-1.794V3.228z"/>
<path fill="#F2F2F2" opacity="0.24" d="M11.689,21.472V3.228c0-0.987,0.807-1.794,1.794-1.794h40.633  c0.986,0,1.795,0.807,1.795,1.794v9.454c0,0.987-10.518,5.21-18.256,6.795C29.917,21.062,11.689,21.472,11.689,21.472z"/>
<linearGradient gradientTransform="matrix(1 0 0 -1 -97.6001 -165.0498)" x1="131.3501" x2="131.3501" gradientUnits="userSpaceOnUse" y1="-212.2612" y2="-170.6274" id="svg3.SVGID_4_">
	<stop offset="0" style="stop-color:#4D4D4D"/>
	<stop offset="0.0667" style="stop-color:#717171"/>
	<stop offset="0.069" style="stop-color:#757575"/>
	<stop offset="0.0831" style="stop-color:#8C8C8C"/>
	<stop offset="0.0996" style="stop-color:#9E9E9E"/>
	<stop offset="0.1196" style="stop-color:#AAAAAA"/>
	<stop offset="0.1466" style="stop-color:#B1B1B1"/>
	<stop offset="0.2121" style="stop-color:#B3B3B3"/>
	<stop offset="1" style="stop-color:#C5C5C5"/>
</linearGradient>
<path fill="url(#svg3.SVGID_4_)" d="M58.385,32.234c-0.689-0.856-2.154-1.559-3.254-1.559H12c-1.1,0-2.552,0.711-3.227,1.579  l-7.546,9.717C0,43.55,0.042,43.785,0,44.55v0.125c0.056,0.393,0.311,1.002,1.248,1.002h64.75c0.75,0.002,1.5-0.252,1.5-1.002V44.55  c0-0.813,0-0.813-1.254-2.559L58.385,32.234z"/>
<path fill="#F2F2F2" d="M58.385,32.234c-0.689-0.856-2.154-1.559-3.254-1.559H12  c-1.1,0-2.552,0.711-3.227,1.579l-7.055,9.085l58.098-7.33L58.385,32.234z" enable-background="new    " opacity="0.23"/>
<path fill="#6E6E6E" d="M59.75,37.205c0.344,0.431,0.172,0.783-0.377,0.783H8.249c-0.55,0-0.742-0.369-0.427-0.819l2.786-3.986  c0.315-0.45,1.023-0.819,1.573-0.819h42.729c0.551,0,1.279,0.354,1.623,0.783L59.75,37.205z"/>
<path fill="#6E6E6E" d="M40.43,41.906c0.072,0.217-0.057,0.395-0.285,0.395H26.727c-0.229,0-0.364-0.18-0.3-0.398l0.822-2.826  c0.064-0.221,0.303-0.399,0.532-0.399h11.167c0.229,0,0.475,0.179,0.547,0.396L40.43,41.906z"/>
</svg>
      </g>
    </g>
    <g text-rendering="geometricPrecision" stroke-miterlimit="1.45" shape-rendering="geometricPrecision" font-family="sans-serif" transform="matrix(1,0,0,1,-800,-469)" stroke-linecap="butt">
      <text x="1236.775" xml:space="preserve" y="548.2933" clip-path="url(#clipPath2)" stroke="none">Client2</text>
    </g>
    <g fill="gray" text-rendering="geometricPrecision" shape-rendering="geometricPrecision" transform="matrix(1,0,0,1,-800,-469)" stroke="gray">
      <rect x="1250.4518" width="10" height="30" y="758.8655" clip-path="url(#clipPath2)" stroke="none"/>
    </g>
    <g text-rendering="geometricPrecision" stroke-miterlimit="1.45" shape-rendering="geometricPrecision" transform="matrix(1,0,0,1,-800,-469)" stroke-linecap="butt">
      <rect fill="none" x="1250.4518" width="10" height="30" y="758.8655" clip-path="url(#clipPath2)"/>
    </g>
    <g fill="gray" text-rendering="geometricPrecision" shape-rendering="geometricPrecision" transform="matrix(1,0,0,1,-800,-469)" stroke="gray">
      <rect x="1087.1114" width="10" height="30" y="758.8655" clip-path="url(#clipPath2)" stroke="none"/>
    </g>
    <g text-rendering="geometricPrecision" stroke-miterlimit="1.45" shape-rendering="geometricPrecision" transform="matrix(1,0,0,1,-800,-469)" stroke-linecap="butt">
      <rect fill="none" x="1087.1114" width="10" height="30" y="758.8655" clip-path="url(#clipPath2)"/>
    </g>
    <g fill="gray" text-rendering="geometricPrecision" shape-rendering="geometricPrecision" transform="matrix(1,0,0,1,-800,-469)" stroke="gray">
      <rect x="1087.1114" width="10" height="30" y="885.231" clip-path="url(#clipPath2)" stroke="none"/>
    </g>
    <g text-rendering="geometricPrecision" stroke-miterlimit="1.45" shape-rendering="geometricPrecision" transform="matrix(1,0,0,1,-800,-469)" stroke-linecap="butt">
      <rect fill="none" x="1087.1114" width="10" height="30" y="885.231" clip-path="url(#clipPath2)"/>
    </g>
    <g fill="gray" text-rendering="geometricPrecision" shape-rendering="geometricPrecision" transform="matrix(1,0,0,1,-800,-469)" stroke="gray">
      <rect x="923.771" width="10" height="30" y="885.231" clip-path="url(#clipPath2)" stroke="none"/>
    </g>
    <g text-rendering="geometricPrecision" stroke-miterlimit="1.45" shape-rendering="geometricPrecision" transform="matrix(1,0,0,1,-800,-469)" stroke-linecap="butt">
      <rect fill="none" x="923.771" width="10" height="30" y="885.231" clip-path="url(#clipPath2)"/>
    </g>
    <g fill="gray" text-rendering="geometricPrecision" shape-rendering="geometricPrecision" transform="matrix(1,0,0,1,-800,-469)" stroke="gray">
      <rect x="923.771" width="10" height="30" y="945.231" clip-path="url(#clipPath2)" stroke="none"/>
    </g>
    <g text-rendering="geometricPrecision" stroke-miterlimit="1.45" shape-rendering="geometricPrecision" transform="matrix(1,0,0,1,-800,-469)" stroke-linecap="butt">
      <rect fill="none" x="923.771" width="10" height="30" y="945.231" clip-path="url(#clipPath2)"/>
    </g>
    <g fill="gray" text-rendering="geometricPrecision" shape-rendering="geometricPrecision" transform="matrix(1,0,0,1,-800,-469)" stroke="gray">
      <rect x="1087.1114" width="10" height="30" y="1005.231" clip-path="url(#clipPath2)" stroke="none"/>
    </g>
    <g text-rendering="geometricPrecision" stroke-miterlimit="1.45" shape-rendering="geometricPrecision" transform="matrix(1,0,0,1,-800,-469)" stroke-linecap="butt">
      <rect fill="none" x="1087.1114" width="10" height="30" y="1005.231" clip-path="url(#clipPath2)"/>
    </g>
    <g fill="gray" text-rendering="geometricPrecision" shape-rendering="geometricPrecision" transform="matrix(1,0,0,1,-800,-469)" stroke="gray">
      <rect x="923.771" width="10" height="30" y="1005.231" clip-path="url(#clipPath2)" stroke="none"/>
    </g>
    <g text-rendering="geometricPrecision" stroke-miterlimit="1.45" shape-rendering="geometricPrecision" transform="matrix(1,0,0,1,-800,-469)" stroke-linecap="butt">
      <rect fill="none" x="923.771" width="10" height="30" y="1005.231" clip-path="url(#clipPath2)"/>
    </g>
    <g fill="gray" text-rendering="geometricPrecision" shape-rendering="geometricPrecision" transform="matrix(1,0,0,1,-800,-469)" stroke="gray">
      <rect x="1250.4518" width="10" height="30" y="885.231" clip-path="url(#clipPath2)" stroke="none"/>
    </g>
    <g text-rendering="geometricPrecision" stroke-miterlimit="1.45" shape-rendering="geometricPrecision" transform="matrix(1,0,0,1,-800,-469)" stroke-linecap="butt">
      <rect fill="none" x="1250.4518" width="10" height="30" y="885.231" clip-path="url(#clipPath2)"/>
    </g>
    <g fill="gray" text-rendering="geometricPrecision" shape-rendering="geometricPrecision" transform="matrix(1,0,0,1,-800,-469)" stroke="gray">
      <rect x="1250.4518" width="10" height="30" y="945.231" clip-path="url(#clipPath2)" stroke="none"/>
    </g>
    <g text-rendering="geometricPrecision" stroke-miterlimit="1.45" shape-rendering="geometricPrecision" transform="matrix(1,0,0,1,-800,-469)" stroke-linecap="butt">
      <rect fill="none" x="1250.4518" width="10" height="30" y="945.231" clip-path="url(#clipPath2)"/>
    </g>
    <g fill="gray" text-rendering="geometricPrecision" shape-rendering="geometricPrecision" transform="matrix(1,0,0,1,-800,-469)" stroke="gray">
      <rect x="1250.4518" width="10" height="30" y="1005.231" clip-path="url(#clipPath2)" stroke="none"/>
    </g>
    <g text-rendering="geometricPrecision" stroke-miterlimit="1.45" shape-rendering="geometricPrecision" transform="matrix(1,0,0,1,-800,-469)" stroke-linecap="butt">
      <rect fill="none" x="1250.4518" width="10" height="30" y="1005.231" clip-path="url(#clipPath2)"/>
    </g>
    <g fill="gray" text-rendering="geometricPrecision" shape-rendering="geometricPrecision" transform="matrix(1,0,0,1,-800,-469)" stroke="gray">
      <rect x="923.771" width="10" height="30" y="818.8655" clip-path="url(#clipPath2)" stroke="none"/>
    </g>
    <g text-rendering="geometricPrecision" stroke-miterlimit="1.45" shape-rendering="geometricPrecision" transform="matrix(1,0,0,1,-800,-469)" stroke-linecap="butt">
      <rect fill="none" x="923.771" width="10" height="30" y="818.8655" clip-path="url(#clipPath2)"/>
    </g>
    <g fill="gray" text-rendering="geometricPrecision" shape-rendering="geometricPrecision" transform="matrix(1,0,0,1,-800,-469)" stroke="gray">
      <rect x="1087.1114" width="10" height="30" y="818.8655" clip-path="url(#clipPath2)" stroke="none"/>
    </g>
    <g text-rendering="geometricPrecision" stroke-miterlimit="1.45" shape-rendering="geometricPrecision" transform="matrix(1,0,0,1,-800,-469)" stroke-linecap="butt">
      <rect fill="none" x="1087.1114" width="10" height="30" y="818.8655" clip-path="url(#clipPath2)"/>
    </g>
    <g fill="gray" text-rendering="geometricPrecision" shape-rendering="geometricPrecision" transform="matrix(1,0,0,1,-800,-469)" stroke="gray">
      <rect x="1250.4518" width="10" height="30" y="818.8655" clip-path="url(#clipPath2)" stroke="none"/>
    </g>
    <g text-rendering="geometricPrecision" stroke-miterlimit="1.45" shape-rendering="geometricPrecision" transform="matrix(1,0,0,1,-800,-469)" stroke-linecap="butt">
      <rect fill="none" x="1250.4518" width="10" height="30" y="818.8655" clip-path="url(#clipPath2)"/>
    </g>
    <g fill="rgb(255,204,0)" text-rendering="geometricPrecision" shape-rendering="geometricPrecision" transform="matrix(1,0,0,1,-800,-469)" stroke="rgb(255,204,0)">
      <path d="M968.1114 484.5645 L1201.1115 484.5645 L1201.1115 499.5645 L1216.1115 499.5645 L1216.1115 512.5645 L968.1114 512.5645 Z" stroke="none" clip-path="url(#clipPath2)"/>
      <path fill="white" d="M1201.1115 484.5645 L1201.1115 499.5645 L1216.1115 499.5645 Z" clip-path="url(#clipPath2)" fill-rule="evenodd" stroke="none"/>
    </g>
    <g text-rendering="geometricPrecision" stroke-miterlimit="1.45" shape-rendering="geometricPrecision" transform="matrix(1,0,0,1,-800,-469)" stroke-linecap="butt">
      <path fill="none" d="M968.1114 484.5645 L1201.1115 484.5645 L1201.1115 499.5645 L1216.1115 499.5645 L1216.1115 512.5645 L968.1114 512.5645 Z" clip-path="url(#clipPath2)"/>
      <path fill="none" d="M1201.1115 484.5645 L1201.1115 499.5645 L1216.1115 499.5645 Z" clip-path="url(#clipPath2)" fill-rule="evenodd"/>
      <text x="1055.089" xml:space="preserve" y="503.2784" clip-path="url(#clipPath2)" font-family="sans-serif" stroke="none">Model Upload</text>
      <path fill="none" stroke-dasharray="6,2" d="M928.771 602.4888 L928.771 638.8655" clip-path="url(#clipPath2)"/>
      <path fill="none" stroke-dasharray="6,2" d="M1092.1115 608.8611 L1092.1115 638.8655" clip-path="url(#clipPath2)"/>
      <path fill="none" d="M933.771 653.8655 L1079.1115 653.8655" clip-path="url(#clipPath2)"/>
      <path d="M1087.1115 653.8655 L1075.1115 648.8655 L1078.1115 653.8655 L1075.1115 658.8655 Z" clip-path="url(#clipPath2)" stroke="none"/>
      <text x="974.4279" xml:space="preserve" y="643.4373" clip-path="url(#clipPath2)" font-family="sans-serif" stroke="none">uploadModel()</text>
      <path fill="none" d="M1092.1115 668.8655 L1092.1115 690.8655" clip-path="url(#clipPath2)"/>
      <path d="M1092.1115 698.8655 L1097.1115 686.8655 L1092.1115 689.8655 L1087.1115 686.8655 Z" clip-path="url(#clipPath2)" stroke="none"/>
      <path fill="none" d="M1097.0985 725.8742 L1099.589 727.929 L1102.4698 729.4927 L1105.6534 730.481 L1109.0714 730.8255 L1112.4895 730.481 L1115.673 729.4927 L1118.554 727.929 L1121.064 725.858 L1123.1349 723.348 L1124.6986 720.4671 L1125.6869 717.2836 L1126.0315 713.8655 L1125.6869 710.4475 L1124.6986 707.2639 L1123.135 704.3831 L1121.064 701.873 L1118.554 699.802 L1115.6731 698.2383 L1112.4895 697.2501 L1109.0714 696.9055 L1105.6534 697.2501 L1103.9764 697.7707 L1103.8936 697.8265" clip-path="url(#clipPath2)"/>
      <path d="M1097.0128 701.9077 L1109.8846 700.0864 L1104.7537 697.3164 L1104.7832 691.4855 Z" clip-path="url(#clipPath2)" stroke="none"/>
      <text x="1132.1827" xml:space="preserve" y="717.5204" clip-path="url(#clipPath2)" font-family="sans-serif" stroke="none">convertModel()</text>
      <path fill="none" stroke-dasharray="6,2" d="M928.771 668.8655 L928.771 758.8655" clip-path="url(#clipPath2)"/>
      <path fill="none" stroke-dasharray="6,2" d="M1255.4518 602.5144 L1255.4518 758.8655" clip-path="url(#clipPath2)"/>
      <path fill="none" d="M1092.1115 728.8655 L1092.1115 750.8655" clip-path="url(#clipPath2)"/>
      <path d="M1092.1115 758.8655 L1097.1115 746.8655 L1092.1115 749.8655 L1087.1115 746.8655 Z" clip-path="url(#clipPath2)" stroke="none"/>
      <path fill="none" d="M1097.1115 773.8655 L1242.4518 773.8655" clip-path="url(#clipPath2)"/>
      <path d="M1250.4518 773.8655 L1238.4518 768.8655 L1241.4518 773.8655 L1238.4518 778.8655 Z" clip-path="url(#clipPath2)" stroke="none"/>
      <text x="1130.9469" xml:space="preserve" y="766.8005" clip-path="url(#clipPath2)" font-family="sans-serif" stroke="none">updateModel()</text>
      <path fill="none" d="M1087.1115 773.8655 L941.771 773.8655" clip-path="url(#clipPath2)"/>
      <path d="M933.771 773.8655 L945.771 778.8655 L942.771 773.8655 L945.771 768.8655 Z" clip-path="url(#clipPath2)" stroke="none"/>
      <text x="969.6669" xml:space="preserve" y="767.4404" clip-path="url(#clipPath2)" font-family="sans-serif" stroke="none">updateModel()</text>
      <path fill="none" d="M1087.1115 900.231 L941.771 900.231" clip-path="url(#clipPath2)"/>
      <path d="M933.771 900.231 L945.771 905.231 L942.771 900.231 L945.771 895.231 Z" clip-path="url(#clipPath2)" stroke="none"/>
      <text x="994.5216" xml:space="preserve" y="892.8428" clip-path="url(#clipPath2)" font-family="sans-serif" stroke="none">model</text>
      <path fill="none" d="M928.771 915.231 L928.771 937.231" clip-path="url(#clipPath2)"/>
      <path d="M928.771 945.231 L933.771 933.231 L928.771 936.231 L923.771 933.231 Z" clip-path="url(#clipPath2)" stroke="none"/>
      <path fill="none" d="M923.7862 948.6114 L921.6603 946.8574 L918.9207 945.3704 L915.8934 944.4307 L912.643 944.103 L909.3926 944.4307 L906.3652 945.3705 L903.6257 946.8574 L901.2388 948.8268 L899.2694 951.2137 L897.7824 953.9533 L896.8427 956.9807 L896.515 960.2311 L896.8427 963.4814 L897.7825 966.5088 L899.2694 969.2484 L901.2388 971.6353 L903.6257 973.6046 L906.3653 975.0916 L909.3927 976.0314 L912.6431 976.359 L915.8934 976.0314 L916.8007 975.7497 L916.884 975.6943" clip-path="url(#clipPath2)"/>
      <path d="M923.8734 971.8021 L910.9567 973.272 L916.0103 976.1808 L915.8219 982.0087 Z" clip-path="url(#clipPath2)" stroke="none"/>
      <text x="817.1836" xml:space="preserve" y="961.9948" clip-path="url(#clipPath2)" font-family="sans-serif" stroke="none">importModel()</text>
      <path fill="none" stroke-dasharray="6,2" d="M1092.1115 915.231 L1092.1115 1005.231" clip-path="url(#clipPath2)"/>
      <path fill="none" stroke-dasharray="6,2" d="M928.771 975.231 L928.771 1005.231" clip-path="url(#clipPath2)"/>
      <path fill="none" d="M1097.1115 900.231 L1242.4518 900.231" clip-path="url(#clipPath2)"/>
      <path d="M1250.4518 900.231 L1238.4518 895.231 L1241.4518 900.231 L1238.4518 905.231 Z" clip-path="url(#clipPath2)" stroke="none"/>
      <text x="1186.7518" xml:space="preserve" y="891.9369" clip-path="url(#clipPath2)" font-family="sans-serif" stroke="none">model</text>
      <path fill="none" d="M1255.4518 915.231 L1255.4518 937.231" clip-path="url(#clipPath2)"/>
      <path d="M1255.4518 945.231 L1260.4518 933.231 L1255.4518 936.231 L1250.4518 933.231 Z" clip-path="url(#clipPath2)" stroke="none"/>
      <path fill="none" d="M1260.4746 971.316 L1262.0264 972.5963 L1264.5593 973.9711 L1267.3585 974.8401 L1270.3638 975.143 L1273.369 974.8401 L1276.1682 973.9712 L1278.7012 972.5963 L1280.9081 970.7755 L1282.729 968.5685 L1284.1039 966.0355 L1284.9728 963.2363 L1285.2758 960.2311 L1284.9728 957.2258 L1284.1039 954.4266 L1282.729 951.8936 L1280.9082 949.6866 L1278.7013 947.8658 L1276.1682 946.4909 L1273.3691 945.622 L1270.3638 945.319 L1267.6425 945.5934 L1267.5535 945.639" clip-path="url(#clipPath2)"/>
      <path d="M1260.385 949.1904 L1273.3574 948.3435 L1268.4496 945.195 L1268.9181 939.3829 Z" clip-path="url(#clipPath2)" stroke="none"/>
      <text x="1290.1921" xml:space="preserve" y="963.3871" clip-path="url(#clipPath2)" font-family="sans-serif" stroke="none">importModel()</text>
      <path fill="none" stroke-dasharray="6,2" d="M1255.4518 975.231 L1255.4518 1005.231" clip-path="url(#clipPath2)"/>
      <path fill="none" d="M928.771 788.8655 L928.771 810.8655" clip-path="url(#clipPath2)"/>
      <path d="M928.771 818.8655 L933.771 806.8655 L928.771 809.8655 L923.771 806.8655 Z" clip-path="url(#clipPath2)" stroke="none"/>
      <path fill="none" stroke-dasharray="6,2" d="M928.771 848.8655 L928.771 885.231" clip-path="url(#clipPath2)"/>
      <path fill="none" d="M933.771 833.8655 L1079.1115 833.8655" clip-path="url(#clipPath2)"/>
      <path d="M1087.1115 833.8655 L1075.1115 828.8655 L1078.1115 833.8655 L1075.1115 838.8655 Z" clip-path="url(#clipPath2)" stroke="none"/>
      <text x="981.7625" xml:space="preserve" y="825.5714" clip-path="url(#clipPath2)" font-family="sans-serif" stroke="none">getModel()</text>
      <path fill="none" stroke-dasharray="6,2" d="M1092.1115 788.8655 L1092.1115 818.8655" clip-path="url(#clipPath2)"/>
      <path fill="none" d="M1092.1115 848.8655 L1092.1115 877.231" clip-path="url(#clipPath2)"/>
      <path d="M1092.1115 885.231 L1097.1115 873.231 L1092.1115 876.231 L1087.1115 873.231 Z" clip-path="url(#clipPath2)" stroke="none"/>
      <path fill="none" d="M1255.4518 788.8655 L1255.4518 810.8655" clip-path="url(#clipPath2)"/>
      <path d="M1255.4518 818.8655 L1260.4518 806.8655 L1255.4518 809.8655 L1250.4518 806.8655 Z" clip-path="url(#clipPath2)" stroke="none"/>
      <path fill="none" d="M1250.4518 833.8655 L1105.1115 833.8655" clip-path="url(#clipPath2)"/>
      <path d="M1097.1115 833.8655 L1109.1115 838.8655 L1106.1115 833.8655 L1109.1115 828.8655 Z" clip-path="url(#clipPath2)" stroke="none"/>
      <text x="1146.7177" xml:space="preserve" y="826.3204" clip-path="url(#clipPath2)" font-family="sans-serif" stroke="none">getModel()</text>
      <path fill="none" stroke-dasharray="6,2" d="M1255.4518 848.8655 L1255.4518 885.231" clip-path="url(#clipPath2)"/>
    </g>
  </g>
</svg>
