<?xml version="1.0" encoding="UTF-8"?><svg xmlns="http://www.w3.org/2000/svg" xmlns:xlink="http://www.w3.org/1999/xlink" fill-opacity="1" color-rendering="auto" color-interpolation="auto" text-rendering="auto" stroke="black" stroke-linecap="square" width="497" stroke-miterlimit="10" shape-rendering="auto" stroke-opacity="1" fill="black" stroke-dasharray="none" font-weight="normal" stroke-width="1" height="646" font-family="'Dialog'" font-style="normal" stroke-linejoin="miter" font-size="12px" stroke-dashoffset="0" image-rendering="auto">
  <!--Generated by ySVG 2.5-->
  <defs id="genericDefs"/>
  <g>
    <g fill="white" text-rendering="geometricPrecision" shape-rendering="geometricPrecision" transform="translate(-850,-520)" stroke="white">
      <rect x="850" width="497" height="646" y="520" clip-path="url(#clipPath2)" stroke="none"/>
    </g>
    <g fill="rgb(255,204,0)" text-rendering="geometricPrecision" shape-rendering="geometricPrecision" transform="matrix(1,0,0,1,-850,-520)" stroke="rgb(255,204,0)">
      <path d="M938.5774 535.199 L1171.5774 535.199 L1171.5774 550.199 L1186.5774 550.199 L1186.5774 563.199 L938.5774 563.199 Z" stroke="none" clip-path="url(#clipPath2)"/>
      <path fill="white" d="M1171.5774 535.199 L1171.5774 550.199 L1186.5774 550.199 Z" clip-path="url(#clipPath2)" fill-rule="evenodd" stroke="none"/>
    </g>
    <g text-rendering="geometricPrecision" stroke-miterlimit="1.45" shape-rendering="geometricPrecision" transform="matrix(1,0,0,1,-850,-520)" stroke-linecap="butt">
      <path fill="none" d="M938.5774 535.199 L1171.5774 535.199 L1171.5774 550.199 L1186.5774 550.199 L1186.5774 563.199 L938.5774 563.199 Z" clip-path="url(#clipPath2)"/>
      <path fill="none" d="M1171.5774 535.199 L1171.5774 550.199 L1186.5774 550.199 Z" clip-path="url(#clipPath2)" fill-rule="evenodd"/>
      <text x="1033.2278" xml:space="preserve" y="553.9128" clip-path="url(#clipPath2)" font-family="sans-serif" stroke="none">Voice Chat</text>
    </g>
    <g fill="gray" text-rendering="geometricPrecision" shape-rendering="geometricPrecision" transform="matrix(1,0,0,1,-850,-520)" stroke="gray">
      <rect x="894.237" width="10" height="30" y="689.5" clip-path="url(#clipPath2)" stroke="none"/>
    </g>
    <g text-rendering="geometricPrecision" stroke-miterlimit="1.45" shape-rendering="geometricPrecision" transform="matrix(1,0,0,1,-850,-520)" stroke-linecap="butt">
      <rect fill="none" x="894.237" width="10" height="30" y="689.5" clip-path="url(#clipPath2)"/>
    </g>
    <g text-rendering="geometricPrecision" shape-rendering="geometricPrecision" transform="matrix(1,0,0,1,15.424,87.3805)">
      <g clip-path="url(#clipPath3)">
        <svg xml:space="preserve" opacity="1" writing-mode="lr-tb" stop-color="rgb(0, 0, 0)" shape-rendering="auto" glyph-orientation-horizontal="0deg" color-profile="auto" lighting-color="rgb(255, 255, 255)" color="rgb(0, 0, 0)" font-weight="400" alignment-baseline="auto" font-style="normal" version="1.1" color-interpolation-filters="linearrgb" text-anchor="start" stroke-linecap="butt" color-interpolation="srgb" font-variant="normal" word-spacing="normal" fill-opacity="1" text-rendering="auto" clip-path="none" text-decoration="none" letter-spacing="normal" viewBox="-0.064 -0.075 68 46" glyph-orientation-vertical="auto" display="inline" font-size-adjust="none" overflow="hidden" fill="rgb(0, 0, 0)" font-stretch="normal" stroke-dasharray="none" stroke-miterlimit="4" stop-opacity="1" color-rendering="auto" font-size="12" pointer-events="visiblepainted" mask="none" direction="ltr" baseline-shift="baseline" enable-background="new -0.064 -0.075 68 46" fill-rule="nonzero" image-rendering="auto" stroke-dashoffset="0" width="68px" marker-end="none" clip="auto" cursor="auto" stroke="none" filter="none" visibility="visible" kerning="auto" stroke-width="1" font-family="&quot;Arial&quot;,&quot;Helvetica&quot;,sans-serif" flood-opacity="1" clip-rule="nonzero" src="none" height="46px" unicode-bidi="normal" stroke-linejoin="miter" stroke-opacity="1" flood-color="rgb(0, 0, 0)" dominant-baseline="auto" marker-start="none" x="0px" marker-mid="none" y="0px">
<defs>
<clipPath clipPathUnits="userSpaceOnUse" id="clipPath1"><path d="M0 0 L497 0 L497 646 L0 646 L0 0 Z"/></clipPath><clipPath clipPathUnits="userSpaceOnUse" id="clipPath2"><path d="M850 520 L1347 520 L1347 1166 L850 1166 L850 520 Z"/></clipPath><clipPath clipPathUnits="userSpaceOnUse" id="clipPath3"><path d="M-15.424 -87.3805 L481.576 -87.3805 L481.576 558.6195 L-15.424 558.6195 L-15.424 -87.3805 Z"/></clipPath><clipPath clipPathUnits="userSpaceOnUse" id="clipPath4"><path d="M-194.1133 -80.85 L302.8867 -80.85 L302.8867 565.15 L-194.1133 565.15 L-194.1133 -80.85 Z"/></clipPath><clipPath clipPathUnits="userSpaceOnUse" id="clipPath5"><path d="M-342.1048 -87.3805 L154.8952 -87.3805 L154.8952 558.6195 L-342.1048 558.6195 L-342.1048 -87.3805 Z"/></clipPath></defs>
<radialGradient gradientTransform="matrix(1.15 0 0 1 -526.6598 -1982.4023)" id="svg1.SVGID_1_" r="21.6001" cx="478.8413" gradientUnits="userSpaceOnUse" cy="1991.2729">
	<stop offset="0" style="stop-color:#F2F2F2"/>
	<stop offset="1" style="stop-color:#8D8D8D"/>
</radialGradient>
<path fill="url(#svg1.SVGID_1_)" d="M10.263,1.903c0-0.987,0.807-1.794,1.794-1.794h43.279c0.986,0,1.795,0.807,1.795,1.794v26.978  c0,0.987-0.809,1.794-1.795,1.794h-43.28c-0.987,0-1.794-0.807-1.794-1.794L10.263,1.903L10.263,1.903z"/>
<path stroke-linecap="round" display="none" fill="none" stroke-linejoin="round" d="  M10.263,1.903c0-0.987,0.807-1.794,1.794-1.794h43.279c0.986,0,1.795,0.807,1.795,1.794v26.978c0,0.987-0.809,1.794-1.795,1.794  h-43.28c-0.987,0-1.794-0.807-1.794-1.794L10.263,1.903L10.263,1.903z" stroke="#3C89C9" stroke-width="0.2185" stroke-miterlimit="10"/>
<radialGradient gradientTransform="matrix(1.1935 0 0 1 -509.6731 -1982.4023)" gradientUnits="userSpaceOnUse" r="47.8462" cx="455.894" id="svg1.SVGID_2_" cy="1983.9624" fx="493.5344" fy="1977.5143">
	<stop offset="0" style="stop-color:#4D4D4D"/>
	<stop offset="1" style="stop-color:#999999"/>
</radialGradient>
<path fill="url(#svg1.SVGID_2_)" d="M11.18,2.819c0-0.987,0.807-1.794,1.794-1.794h41.649c0.986,0,1.795,0.807,1.795,1.794v24.943  c0,0.985-0.809,1.794-1.795,1.794H12.974c-0.987,0-1.794-0.809-1.794-1.794V2.819z"/>
<radialGradient gradientTransform="matrix(1.1923 0 0 1 -510.1314 -1982.4023)" id="svg1.SVGID_3_" r="30.6699" cx="456.8843" gradientUnits="userSpaceOnUse" cy="1984.0386">
	<stop offset="0" style="stop-color:#9CD7FF"/>
	<stop offset="1" style="stop-color:#3C89C9"/>
</radialGradient>
<path fill="url(#svg1.SVGID_3_)" d="M11.689,3.228c0-0.987,0.807-1.794,1.794-1.794h40.633c0.986,0,1.795,0.807,1.795,1.794v24.126  c0,0.986-0.809,1.794-1.795,1.794H13.483c-0.987,0-1.794-0.809-1.794-1.794V3.228z"/>
<path fill="#F2F2F2" opacity="0.24" d="M11.689,21.472V3.228c0-0.987,0.807-1.794,1.794-1.794h40.633  c0.986,0,1.795,0.807,1.795,1.794v9.454c0,0.987-10.518,5.21-18.256,6.795C29.917,21.062,11.689,21.472,11.689,21.472z"/>
<linearGradient gradientTransform="matrix(1 0 0 -1 -97.6001 -165.0498)" x1="131.3501" x2="131.3501" gradientUnits="userSpaceOnUse" y1="-212.2612" y2="-170.6274" id="svg1.SVGID_4_">
	<stop offset="0" style="stop-color:#4D4D4D"/>
	<stop offset="0.0667" style="stop-color:#717171"/>
	<stop offset="0.069" style="stop-color:#757575"/>
	<stop offset="0.0831" style="stop-color:#8C8C8C"/>
	<stop offset="0.0996" style="stop-color:#9E9E9E"/>
	<stop offset="0.1196" style="stop-color:#AAAAAA"/>
	<stop offset="0.1466" style="stop-color:#B1B1B1"/>
	<stop offset="0.2121" style="stop-color:#B3B3B3"/>
	<stop offset="1" style="stop-color:#C5C5C5"/>
</linearGradient>
<path fill="url(#svg1.SVGID_4_)" d="M58.385,32.234c-0.689-0.856-2.154-1.559-3.254-1.559H12c-1.1,0-2.552,0.711-3.227,1.579  l-7.546,9.717C0,43.55,0.042,43.785,0,44.55v0.125c0.056,0.393,0.311,1.002,1.248,1.002h64.75c0.75,0.002,1.5-0.252,1.5-1.002V44.55  c0-0.813,0-0.813-1.254-2.559L58.385,32.234z"/>
<path fill="#F2F2F2" d="M58.385,32.234c-0.689-0.856-2.154-1.559-3.254-1.559H12  c-1.1,0-2.552,0.711-3.227,1.579l-7.055,9.085l58.098-7.33L58.385,32.234z" enable-background="new    " opacity="0.23"/>
<path fill="#6E6E6E" d="M59.75,37.205c0.344,0.431,0.172,0.783-0.377,0.783H8.249c-0.55,0-0.742-0.369-0.427-0.819l2.786-3.986  c0.315-0.45,1.023-0.819,1.573-0.819h42.729c0.551,0,1.279,0.354,1.623,0.783L59.75,37.205z"/>
<path fill="#6E6E6E" d="M40.43,41.906c0.072,0.217-0.057,0.395-0.285,0.395H26.727c-0.229,0-0.364-0.18-0.3-0.398l0.822-2.826  c0.064-0.221,0.303-0.399,0.532-0.399h11.167c0.229,0,0.475,0.179,0.547,0.396L40.43,41.906z"/>
</svg>
      </g>
    </g>
    <g text-rendering="geometricPrecision" stroke-miterlimit="1.45" shape-rendering="geometricPrecision" font-family="sans-serif" transform="matrix(1,0,0,1,-850,-520)" stroke-linecap="butt">
      <text x="880.5602" xml:space="preserve" y="598.9278" clip-path="url(#clipPath2)" stroke="none">Client1</text>
    </g>
    <g text-rendering="geometricPrecision" shape-rendering="geometricPrecision" transform="matrix(1,0,0,1,194.1133,80.85)">
      <g clip-path="url(#clipPath4)">
        <svg xml:space="preserve" opacity="1" writing-mode="lr-tb" stop-color="rgb(0, 0, 0)" shape-rendering="auto" glyph-orientation-horizontal="0deg" color-profile="auto" lighting-color="rgb(255, 255, 255)" color="rgb(0, 0, 0)" font-weight="400" alignment-baseline="auto" font-style="normal" version="1.1" color-interpolation-filters="linearrgb" text-anchor="start" stroke-linecap="butt" color-interpolation="srgb" font-variant="normal" word-spacing="normal" fill-opacity="1" text-rendering="auto" clip-path="none" text-decoration="none" letter-spacing="normal" viewBox="-0.569 -0.349 37 59" glyph-orientation-vertical="auto" display="inline" font-size-adjust="none" overflow="hidden" fill="rgb(0, 0, 0)" font-stretch="normal" stroke-dasharray="none" stroke-miterlimit="4" stop-opacity="1" color-rendering="auto" font-size="12" pointer-events="visiblepainted" mask="none" direction="ltr" baseline-shift="baseline" enable-background="new -0.569 -0.349 37 59" fill-rule="nonzero" image-rendering="auto" stroke-dashoffset="0" width="37px" marker-end="none" clip="auto" cursor="auto" stroke="none" filter="none" visibility="visible" kerning="auto" stroke-width="1" font-family="&quot;Arial&quot;,&quot;Helvetica&quot;,sans-serif" flood-opacity="1" clip-rule="nonzero" src="none" height="59px" unicode-bidi="normal" stroke-linejoin="miter" stroke-opacity="1" flood-color="rgb(0, 0, 0)" dominant-baseline="auto" marker-start="none" x="0px" marker-mid="none" y="0px">
<defs>
</defs>
<linearGradient gradientTransform="matrix(1 0 0 -1 -97.6001 -161.5986)" x1="115.7744" x2="115.7743" gradientUnits="userSpaceOnUse" y1="-158.8057" y2="-219.9759" id="svg2.SVGID_1_">
	<stop offset="0" style="stop-color:#B3B3B3"/>
	<stop offset="0.164" style="stop-color:#ABABAB"/>
	<stop offset="0.4188" style="stop-color:#959595"/>
	<stop offset="0.7308" style="stop-color:#717171"/>
	<stop offset="1" style="stop-color:#4D4D4D"/>
</linearGradient>
<path fill="url(#svg2.SVGID_1_)" d="M35.79,55.773c0,1.392-1.137,2.528-2.527,2.528H3.086c-1.39,0-2.528-1.139-2.528-2.528V2.528  C0.559,1.138,1.697,0,3.086,0h30.176c1.391,0,2.527,1.138,2.527,2.528V55.773z"/>
<linearGradient gradientTransform="matrix(1 0 0 -1 -97.6001 -161.5986)" x1="115.7744" x2="115.7743" gradientUnits="userSpaceOnUse" y1="-158.8057" y2="-219.9759" id="svg2.SVGID_2_">
	<stop offset="0" style="stop-color:#B3B3B3"/>
	<stop offset="0.164" style="stop-color:#ABABAB"/>
	<stop offset="0.4188" style="stop-color:#959595"/>
	<stop offset="0.7308" style="stop-color:#717171"/>
	<stop offset="1" style="stop-color:#4D4D4D"/>
</linearGradient>
<path fill="url(#svg2.SVGID_2_)" d="M35.79,55.773c0,1.392-1.137,2.528-2.527,2.528H3.086c-1.39,0-2.528-1.139-2.528-2.528V2.528  C0.559,1.138,1.697,0,3.086,0h30.176c1.391,0,2.527,1.138,2.527,2.528V55.773z"/>
<path fill="#FFFFFF" opacity="0.19" d="M35.79,39.342L0.559,26.702V2.529c0-1.391,1.138-2.528,2.528-2.528h30.176  c1.391,0,2.527,1.138,2.527,2.528V39.342z"/>
<path fill="#353535" d="M32.868,53.717c0,1.392-1.138,2.529-2.527,2.529H11.854c-1.39,0-2.528-1.139-2.528-2.529V11.534  c0-1.39,1.138-2.528,2.528-2.528H30.34c1.391,0,2.528,1.138,2.528,2.528V53.717L32.868,53.717z"/>
<linearGradient gradientTransform="matrix(1 0 0 -1 -97.6001 -161.5986)" x1="123.9893" x2="123.9893" gradientUnits="userSpaceOnUse" y1="-171.4683" y2="-215.0464" id="svg2.SVGID_3_">
	<stop offset="0" style="stop-color:#B3B3B3"/>
	<stop offset="0.164" style="stop-color:#ABABAB"/>
	<stop offset="0.4188" style="stop-color:#959595"/>
	<stop offset="0.7308" style="stop-color:#717171"/>
	<stop offset="1" style="stop-color:#4D4D4D"/>
</linearGradient>
<path fill="url(#svg2.SVGID_3_)" d="M30.34,52.129c0,0.695-0.568,1.265-1.265,1.265h-5.371c-0.695,0-1.265-0.568-1.265-1.265V13.123  c0-0.695,0.568-1.264,1.265-1.264h5.371c0.695,0,1.265,0.569,1.265,1.264V52.129z"/>
<linearGradient gradientTransform="matrix(1 0 0 -1 -97.6001 -161.5986)" x1="113.4834" x2="113.4834" gradientUnits="userSpaceOnUse" y1="-171.4683" y2="-215.0464" id="svg2.SVGID_4_">
	<stop offset="0" style="stop-color:#B3B3B3"/>
	<stop offset="0.164" style="stop-color:#ABABAB"/>
	<stop offset="0.4188" style="stop-color:#959595"/>
	<stop offset="0.7308" style="stop-color:#717171"/>
	<stop offset="1" style="stop-color:#4D4D4D"/>
</linearGradient>
<path fill="url(#svg2.SVGID_4_)" d="M19.833,52.129c0,0.695-0.567,1.265-1.264,1.265h-5.372c-0.695,0-1.264-0.568-1.264-1.265V13.123  c0-0.695,0.569-1.264,1.264-1.264h5.372c0.695,0,1.264,0.569,1.264,1.264V52.129z"/>
<linearGradient gradientTransform="matrix(1 0 0 -1 -97.6001 -161.5986)" x1="123.9932" x2="123.9932" gradientUnits="userSpaceOnUse" y1="-215.5532" y2="-209.4927" id="svg2.SVGID_5_">
	<stop offset="0" style="stop-color:#8D8D8D"/>
	<stop offset="0.2282" style="stop-color:#858585"/>
	<stop offset="0.5829" style="stop-color:#6F6F6F"/>
	<stop offset="1" style="stop-color:#4D4D4D"/>
</linearGradient>
<rect x="23.362" fill="url(#svg2.SVGID_5_)" width="6.06" y="45.948" height="6.061"/>
<linearGradient gradientTransform="matrix(1 0 0 -1 -97.6001 -161.5986)" x1="113.4834" x2="113.4834" gradientUnits="userSpaceOnUse" y1="-215.4204" y2="-209.3599" id="svg2.SVGID_6_">
	<stop offset="0" style="stop-color:#8D8D8D"/>
	<stop offset="0.2282" style="stop-color:#858585"/>
	<stop offset="0.5829" style="stop-color:#6F6F6F"/>
	<stop offset="1" style="stop-color:#4D4D4D"/>
</linearGradient>
<rect x="12.854" fill="url(#svg2.SVGID_6_)" width="6.06" y="45.815" height="6.061"/>
<rect x="12.854" fill="#6E6E6E" width="6.06" y="24.328" height="15.014"/>
<rect x="23.36" fill="#6E6E6E" width="6.061" y="24.328" height="15.014"/>
<rect x="0.071" y="50.68" fill="#C8FF00" width="5.709" height="2.898" stroke="#717171" stroke-width="0.1416" stroke-miterlimit="10"/>
<radialGradient gradientTransform="matrix(1 0 0 -1 -97.6001 -161.5986)" id="svg2.SVGID_7_" r="3.221" cx="124.1484" gradientUnits="userSpaceOnUse" cy="-180.064">
	<stop offset="0" style="stop-color:#8D8D8D"/>
	<stop offset="0.2282" style="stop-color:#858585"/>
	<stop offset="0.5829" style="stop-color:#6F6F6F"/>
	<stop offset="1" style="stop-color:#4D4D4D"/>
</radialGradient>
<circle fill="url(#svg2.SVGID_7_)" r="2.296" cx="26.391" cy="18.307" stroke="#666666" stroke-width="0.632" stroke-miterlimit="10"/>
<radialGradient gradientTransform="matrix(1 0 0 -1 -97.6001 -161.5986)" id="svg2.SVGID_8_" r="3.2209" cx="113.6426" gradientUnits="userSpaceOnUse" cy="-180.064">
	<stop offset="0" style="stop-color:#8D8D8D"/>
	<stop offset="0.2282" style="stop-color:#858585"/>
	<stop offset="0.5829" style="stop-color:#6F6F6F"/>
	<stop offset="1" style="stop-color:#4D4D4D"/>
</radialGradient>
<circle fill="url(#svg2.SVGID_8_)" r="2.295" cx="15.885" cy="18.307" stroke="#666666" stroke-width="0.632" stroke-miterlimit="10"/>
</svg>
      </g>
    </g>
    <g text-rendering="geometricPrecision" stroke-miterlimit="1.45" shape-rendering="geometricPrecision" font-family="sans-serif" transform="matrix(1,0,0,1,-850,-520)" stroke-linecap="butt">
      <text x="1050.2405" xml:space="preserve" y="592.5623" clip-path="url(#clipPath2)" stroke="none">Host</text>
    </g>
    <g fill="gray" text-rendering="geometricPrecision" shape-rendering="geometricPrecision" transform="matrix(1,0,0,1,-850,-520)" stroke="gray">
      <rect x="894.237" width="10" height="30" y="749.5" clip-path="url(#clipPath2)" stroke="none"/>
    </g>
    <g text-rendering="geometricPrecision" stroke-miterlimit="1.45" shape-rendering="geometricPrecision" transform="matrix(1,0,0,1,-850,-520)" stroke-linecap="butt">
      <rect fill="none" x="894.237" width="10" height="30" y="749.5" clip-path="url(#clipPath2)"/>
    </g>
    <g text-rendering="geometricPrecision" shape-rendering="geometricPrecision" transform="matrix(1,0,0,1,342.1048,87.3805)">
      <g clip-path="url(#clipPath5)">
        <svg xml:space="preserve" opacity="1" writing-mode="lr-tb" stop-color="rgb(0, 0, 0)" shape-rendering="auto" glyph-orientation-horizontal="0deg" color-profile="auto" lighting-color="rgb(255, 255, 255)" color="rgb(0, 0, 0)" font-weight="400" alignment-baseline="auto" font-style="normal" version="1.1" color-interpolation-filters="linearrgb" text-anchor="start" stroke-linecap="butt" color-interpolation="srgb" font-variant="normal" word-spacing="normal" fill-opacity="1" text-rendering="auto" clip-path="none" text-decoration="none" letter-spacing="normal" viewBox="-0.064 -0.075 68 46" glyph-orientation-vertical="auto" display="inline" font-size-adjust="none" overflow="hidden" fill="rgb(0, 0, 0)" font-stretch="normal" stroke-dasharray="none" stroke-miterlimit="4" stop-opacity="1" color-rendering="auto" font-size="12" pointer-events="visiblepainted" mask="none" direction="ltr" baseline-shift="baseline" enable-background="new -0.064 -0.075 68 46" fill-rule="nonzero" image-rendering="auto" stroke-dashoffset="0" width="68px" marker-end="none" clip="auto" cursor="auto" stroke="none" filter="none" visibility="visible" kerning="auto" stroke-width="1" font-family="&quot;Arial&quot;,&quot;Helvetica&quot;,sans-serif" flood-opacity="1" clip-rule="nonzero" src="none" height="46px" unicode-bidi="normal" stroke-linejoin="miter" stroke-opacity="1" flood-color="rgb(0, 0, 0)" dominant-baseline="auto" marker-start="none" x="0px" marker-mid="none" y="0px">
<defs>
</defs>
<radialGradient gradientTransform="matrix(1.15 0 0 1 -526.6598 -1982.4023)" id="svg3.SVGID_1_" r="21.6001" cx="478.8413" gradientUnits="userSpaceOnUse" cy="1991.2729">
	<stop offset="0" style="stop-color:#F2F2F2"/>
	<stop offset="1" style="stop-color:#8D8D8D"/>
</radialGradient>
<path fill="url(#svg3.SVGID_1_)" d="M10.263,1.903c0-0.987,0.807-1.794,1.794-1.794h43.279c0.986,0,1.795,0.807,1.795,1.794v26.978  c0,0.987-0.809,1.794-1.795,1.794h-43.28c-0.987,0-1.794-0.807-1.794-1.794L10.263,1.903L10.263,1.903z"/>
<path stroke-linecap="round" display="none" fill="none" stroke-linejoin="round" d="  M10.263,1.903c0-0.987,0.807-1.794,1.794-1.794h43.279c0.986,0,1.795,0.807,1.795,1.794v26.978c0,0.987-0.809,1.794-1.795,1.794  h-43.28c-0.987,0-1.794-0.807-1.794-1.794L10.263,1.903L10.263,1.903z" stroke="#3C89C9" stroke-width="0.2185" stroke-miterlimit="10"/>
<radialGradient gradientTransform="matrix(1.1935 0 0 1 -509.6731 -1982.4023)" gradientUnits="userSpaceOnUse" r="47.8462" cx="455.894" id="svg3.SVGID_2_" cy="1983.9624" fx="493.5344" fy="1977.5143">
	<stop offset="0" style="stop-color:#4D4D4D"/>
	<stop offset="1" style="stop-color:#999999"/>
</radialGradient>
<path fill="url(#svg3.SVGID_2_)" d="M11.18,2.819c0-0.987,0.807-1.794,1.794-1.794h41.649c0.986,0,1.795,0.807,1.795,1.794v24.943  c0,0.985-0.809,1.794-1.795,1.794H12.974c-0.987,0-1.794-0.809-1.794-1.794V2.819z"/>
<radialGradient gradientTransform="matrix(1.1923 0 0 1 -510.1314 -1982.4023)" id="svg3.SVGID_3_" r="30.6699" cx="456.8843" gradientUnits="userSpaceOnUse" cy="1984.0386">
	<stop offset="0" style="stop-color:#9CD7FF"/>
	<stop offset="1" style="stop-color:#3C89C9"/>
</radialGradient>
<path fill="url(#svg3.SVGID_3_)" d="M11.689,3.228c0-0.987,0.807-1.794,1.794-1.794h40.633c0.986,0,1.795,0.807,1.795,1.794v24.126  c0,0.986-0.809,1.794-1.795,1.794H13.483c-0.987,0-1.794-0.809-1.794-1.794V3.228z"/>
<path fill="#F2F2F2" opacity="0.24" d="M11.689,21.472V3.228c0-0.987,0.807-1.794,1.794-1.794h40.633  c0.986,0,1.795,0.807,1.795,1.794v9.454c0,0.987-10.518,5.21-18.256,6.795C29.917,21.062,11.689,21.472,11.689,21.472z"/>
<linearGradient gradientTransform="matrix(1 0 0 -1 -97.6001 -165.0498)" x1="131.3501" x2="131.3501" gradientUnits="userSpaceOnUse" y1="-212.2612" y2="-170.6274" id="svg3.SVGID_4_">
	<stop offset="0" style="stop-color:#4D4D4D"/>
	<stop offset="0.0667" style="stop-color:#717171"/>
	<stop offset="0.069" style="stop-color:#757575"/>
	<stop offset="0.0831" style="stop-color:#8C8C8C"/>
	<stop offset="0.0996" style="stop-color:#9E9E9E"/>
	<stop offset="0.1196" style="stop-color:#AAAAAA"/>
	<stop offset="0.1466" style="stop-color:#B1B1B1"/>
	<stop offset="0.2121" style="stop-color:#B3B3B3"/>
	<stop offset="1" style="stop-color:#C5C5C5"/>
</linearGradient>
<path fill="url(#svg3.SVGID_4_)" d="M58.385,32.234c-0.689-0.856-2.154-1.559-3.254-1.559H12c-1.1,0-2.552,0.711-3.227,1.579  l-7.546,9.717C0,43.55,0.042,43.785,0,44.55v0.125c0.056,0.393,0.311,1.002,1.248,1.002h64.75c0.75,0.002,1.5-0.252,1.5-1.002V44.55  c0-0.813,0-0.813-1.254-2.559L58.385,32.234z"/>
<path fill="#F2F2F2" d="M58.385,32.234c-0.689-0.856-2.154-1.559-3.254-1.559H12  c-1.1,0-2.552,0.711-3.227,1.579l-7.055,9.085l58.098-7.33L58.385,32.234z" enable-background="new    " opacity="0.23"/>
<path fill="#6E6E6E" d="M59.75,37.205c0.344,0.431,0.172,0.783-0.377,0.783H8.249c-0.55,0-0.742-0.369-0.427-0.819l2.786-3.986  c0.315-0.45,1.023-0.819,1.573-0.819h42.729c0.551,0,1.279,0.354,1.623,0.783L59.75,37.205z"/>
<path fill="#6E6E6E" d="M40.43,41.906c0.072,0.217-0.057,0.395-0.285,0.395H26.727c-0.229,0-0.364-0.18-0.3-0.398l0.822-2.826  c0.064-0.221,0.303-0.399,0.532-0.399h11.167c0.229,0,0.475,0.179,0.547,0.396L40.43,41.906z"/>
</svg>
      </g>
    </g>
    <g text-rendering="geometricPrecision" stroke-miterlimit="1.45" shape-rendering="geometricPrecision" font-family="sans-serif" transform="matrix(1,0,0,1,-850,-520)" stroke-linecap="butt">
      <text x="1207.241" xml:space="preserve" y="598.9278" clip-path="url(#clipPath2)" stroke="none">Client2</text>
    </g>
    <g fill="gray" text-rendering="geometricPrecision" shape-rendering="geometricPrecision" transform="matrix(1,0,0,1,-850,-520)" stroke="gray">
      <rect x="894.237" width="10" height="30" y="867.74" clip-path="url(#clipPath2)" stroke="none"/>
    </g>
    <g text-rendering="geometricPrecision" stroke-miterlimit="1.45" shape-rendering="geometricPrecision" transform="matrix(1,0,0,1,-850,-520)" stroke-linecap="butt">
      <rect fill="none" x="894.237" width="10" height="30" y="867.74" clip-path="url(#clipPath2)"/>
    </g>
    <g fill="gray" text-rendering="geometricPrecision" shape-rendering="geometricPrecision" transform="matrix(1,0,0,1,-850,-520)" stroke="gray">
      <rect x="1057.5774" width="10" height="30" y="867.74" clip-path="url(#clipPath2)" stroke="none"/>
    </g>
    <g text-rendering="geometricPrecision" stroke-miterlimit="1.45" shape-rendering="geometricPrecision" transform="matrix(1,0,0,1,-850,-520)" stroke-linecap="butt">
      <rect fill="none" x="1057.5774" width="10" height="30" y="867.74" clip-path="url(#clipPath2)"/>
    </g>
    <g fill="gray" text-rendering="geometricPrecision" shape-rendering="geometricPrecision" transform="matrix(1,0,0,1,-850,-520)" stroke="gray">
      <rect x="894.237" width="10" height="30" y="934.1055" clip-path="url(#clipPath2)" stroke="none"/>
    </g>
    <g text-rendering="geometricPrecision" stroke-miterlimit="1.45" shape-rendering="geometricPrecision" transform="matrix(1,0,0,1,-850,-520)" stroke-linecap="butt">
      <rect fill="none" x="894.237" width="10" height="30" y="934.1055" clip-path="url(#clipPath2)"/>
    </g>
    <g fill="gray" text-rendering="geometricPrecision" shape-rendering="geometricPrecision" transform="matrix(1,0,0,1,-850,-520)" stroke="gray">
      <rect x="1220.9178" width="10" height="30" y="934.1055" clip-path="url(#clipPath2)" stroke="none"/>
    </g>
    <g text-rendering="geometricPrecision" stroke-miterlimit="1.45" shape-rendering="geometricPrecision" transform="matrix(1,0,0,1,-850,-520)" stroke-linecap="butt">
      <rect fill="none" x="1220.9178" width="10" height="30" y="934.1055" clip-path="url(#clipPath2)"/>
    </g>
    <g fill="gray" text-rendering="geometricPrecision" shape-rendering="geometricPrecision" transform="matrix(1,0,0,1,-850,-520)" stroke="gray">
      <rect x="1057.5774" width="10" height="30" y="934.1055" clip-path="url(#clipPath2)" stroke="none"/>
    </g>
    <g text-rendering="geometricPrecision" stroke-miterlimit="1.45" shape-rendering="geometricPrecision" transform="matrix(1,0,0,1,-850,-520)" stroke-linecap="butt">
      <rect fill="none" x="1057.5774" width="10" height="30" y="934.1055" clip-path="url(#clipPath2)"/>
    </g>
    <g fill="gray" text-rendering="geometricPrecision" shape-rendering="geometricPrecision" transform="matrix(1,0,0,1,-850,-520)" stroke="gray">
      <rect x="1057.5774" width="10" height="30" y="1120.471" clip-path="url(#clipPath2)" stroke="none"/>
    </g>
    <g text-rendering="geometricPrecision" stroke-miterlimit="1.45" shape-rendering="geometricPrecision" transform="matrix(1,0,0,1,-850,-520)" stroke-linecap="butt">
      <rect fill="none" x="1057.5774" width="10" height="30" y="1120.471" clip-path="url(#clipPath2)"/>
    </g>
    <g fill="gray" text-rendering="geometricPrecision" shape-rendering="geometricPrecision" transform="matrix(1,0,0,1,-850,-520)" stroke="gray">
      <rect x="894.237" width="10" height="30" y="1120.471" clip-path="url(#clipPath2)" stroke="none"/>
    </g>
    <g text-rendering="geometricPrecision" stroke-miterlimit="1.45" shape-rendering="geometricPrecision" transform="matrix(1,0,0,1,-850,-520)" stroke-linecap="butt">
      <rect fill="none" x="894.237" width="10" height="30" y="1120.471" clip-path="url(#clipPath2)"/>
    </g>
    <g fill="gray" text-rendering="geometricPrecision" shape-rendering="geometricPrecision" transform="matrix(1,0,0,1,-850,-520)" stroke="gray">
      <rect x="1220.9178" width="10" height="30" y="1060.471" clip-path="url(#clipPath2)" stroke="none"/>
    </g>
    <g text-rendering="geometricPrecision" stroke-miterlimit="1.45" shape-rendering="geometricPrecision" transform="matrix(1,0,0,1,-850,-520)" stroke-linecap="butt">
      <rect fill="none" x="1220.9178" width="10" height="30" y="1060.471" clip-path="url(#clipPath2)"/>
    </g>
    <g fill="gray" text-rendering="geometricPrecision" shape-rendering="geometricPrecision" transform="matrix(1,0,0,1,-850,-520)" stroke="gray">
      <rect x="1220.9178" width="10" height="30" y="1120.471" clip-path="url(#clipPath2)" stroke="none"/>
    </g>
    <g text-rendering="geometricPrecision" stroke-miterlimit="1.45" shape-rendering="geometricPrecision" transform="matrix(1,0,0,1,-850,-520)" stroke-linecap="butt">
      <rect fill="none" x="1220.9178" width="10" height="30" y="1120.471" clip-path="url(#clipPath2)"/>
    </g>
    <g fill="gray" text-rendering="geometricPrecision" shape-rendering="geometricPrecision" transform="matrix(1,0,0,1,-850,-520)" stroke="gray">
      <rect x="894.237" width="10" height="30" y="994.1055" clip-path="url(#clipPath2)" stroke="none"/>
    </g>
    <g text-rendering="geometricPrecision" stroke-miterlimit="1.45" shape-rendering="geometricPrecision" transform="matrix(1,0,0,1,-850,-520)" stroke-linecap="butt">
      <rect fill="none" x="894.237" width="10" height="30" y="994.1055" clip-path="url(#clipPath2)"/>
    </g>
    <g fill="gray" text-rendering="geometricPrecision" shape-rendering="geometricPrecision" transform="matrix(1,0,0,1,-850,-520)" stroke="gray">
      <rect x="1220.9178" width="10" height="30" y="997.2883" clip-path="url(#clipPath2)" stroke="none"/>
    </g>
    <g text-rendering="geometricPrecision" stroke-miterlimit="1.45" shape-rendering="geometricPrecision" transform="matrix(1,0,0,1,-850,-520)" stroke-linecap="butt">
      <rect fill="none" x="1220.9178" width="10" height="30" y="997.2883" clip-path="url(#clipPath2)"/>
    </g>
    <g fill="gray" text-rendering="geometricPrecision" shape-rendering="geometricPrecision" transform="matrix(1,0,0,1,-850,-520)" stroke="gray">
      <rect x="894.237" width="10" height="30" y="809.5" clip-path="url(#clipPath2)" stroke="none"/>
    </g>
    <g text-rendering="geometricPrecision" stroke-miterlimit="1.45" shape-rendering="geometricPrecision" transform="matrix(1,0,0,1,-850,-520)" stroke-linecap="butt">
      <rect fill="none" x="894.237" width="10" height="30" y="809.5" clip-path="url(#clipPath2)"/>
      <path fill="none" d="M904.2233 717.1633 L904.7434 717.7936 L907.5258 720.0892 L910.7192 721.8226 L914.2481 722.918 L918.037 723.3 L921.8259 722.9181 L925.3548 721.8226 L928.5483 720.0893 L931.3306 717.7936 L933.6262 715.0113 L935.3596 711.8178 L936.455 708.2889 L936.837 704.5 L936.4551 700.7112 L935.3596 697.1822 L933.6263 693.9888 L931.3306 691.2064 L928.5483 688.9108 L925.3548 687.1774 L921.8259 686.082 L918.037 685.7 L914.2482 686.082 L910.7251 687.1756 L910.6439 687.2339" clip-path="url(#clipPath2)"/>
      <path d="M904.142 691.8951 L916.808 688.967 L911.4565 686.6512 L910.9815 680.8397 Z" clip-path="url(#clipPath2)" stroke="none"/>
      <text x="943.0139" xml:space="preserve" y="706.1066" clip-path="url(#clipPath2)" font-family="sans-serif" stroke="none">recordAudio()</text>
      <path fill="none" stroke-dasharray="6,2" d="M899.237 653.1233 L899.237 689.5" clip-path="url(#clipPath2)"/>
      <path fill="none" stroke-dasharray="6,2" d="M899.237 719.5 L899.237 749.5" clip-path="url(#clipPath2)"/>
      <path fill="none" d="M904.2233 777.1633 L904.7434 777.7936 L907.5258 780.0892 L910.7192 781.8226 L914.2481 782.918 L918.037 783.3 L921.8259 782.9181 L925.3548 781.8226 L928.5483 780.0893 L931.3306 777.7936 L933.6262 775.0113 L935.3596 771.8178 L936.455 768.2889 L936.837 764.5 L936.4551 760.7112 L935.3596 757.1822 L933.6263 753.9888 L931.3306 751.2064 L928.5483 748.9108 L925.3548 747.1774 L921.8259 746.082 L918.037 745.7 L914.2482 746.082 L910.7251 747.1756 L910.6439 747.2339" clip-path="url(#clipPath2)"/>
      <path d="M904.142 751.8951 L916.808 748.967 L911.4565 746.6512 L910.9815 740.8397 Z" clip-path="url(#clipPath2)" stroke="none"/>
      <text x="943.3527" y="766.9411" clip-path="url(#clipPath2)" fill="rgb(153,204,0)" font-family="sans-serif" stroke="none" xml:space="preserve">isRelevant()</text>
      <path fill="none" d="M904.237 882.74 L1049.5774 882.74" clip-path="url(#clipPath2)"/>
      <path d="M1057.5774 882.74 L1045.5774 877.74 L1048.5774 882.74 L1045.5774 887.74 Z" clip-path="url(#clipPath2)" stroke="none"/>
      <text x="945.89" xml:space="preserve" y="872.3118" clip-path="url(#clipPath2)" font-family="sans-serif" stroke="none">uploadAudio()</text>
      <path fill="none" stroke-dasharray="6,2" d="M1062.5774 659.526 L1062.5774 867.74" clip-path="url(#clipPath2)"/>
      <path fill="none" stroke-dasharray="6,2" d="M899.237 897.74 L899.237 934.1055" clip-path="url(#clipPath2)"/>
      <path fill="none" stroke-dasharray="6,2" d="M1225.9177 653.1122 L1225.9177 934.1055" clip-path="url(#clipPath2)"/>
      <path fill="none" d="M1062.5774 897.74 L1062.5774 926.1055" clip-path="url(#clipPath2)"/>
      <path d="M1062.5774 934.1055 L1067.5774 922.1055 L1062.5774 925.1055 L1057.5774 922.1055 Z" clip-path="url(#clipPath2)" stroke="none"/>
      <path fill="none" d="M1067.5774 949.1055 L1212.9177 949.1055" clip-path="url(#clipPath2)"/>
      <path d="M1220.9177 949.1055 L1208.9177 944.1055 L1211.9177 949.1055 L1208.9177 954.1055 Z" clip-path="url(#clipPath2)" stroke="none"/>
      <text x="1105.7518" xml:space="preserve" y="942.0405" clip-path="url(#clipPath2)" font-family="sans-serif" stroke="none">shareAudio()</text>
      <path fill="none" d="M1057.5774 949.1055 L912.237 949.1055" clip-path="url(#clipPath2)"/>
      <path d="M904.237 949.1055 L916.237 954.1055 L913.237 949.1055 L916.237 944.1055 Z" clip-path="url(#clipPath2)" stroke="none"/>
      <text x="944.4718" xml:space="preserve" y="942.6805" clip-path="url(#clipPath2)" font-family="sans-serif" stroke="none">shareAudio()</text>
      <path fill="none" stroke-dasharray="6,2" d="M1062.5774 964.1055 L1062.5774 1120.4709" clip-path="url(#clipPath2)"/>
      <path fill="none" d="M1230.9323 1087.8867 L1231.1898 1088.1989 L1233.8538 1090.3969 L1236.9114 1092.0564 L1240.2902 1093.1052 L1243.9177 1093.4709 L1247.5454 1093.1052 L1250.9242 1092.0564 L1253.9817 1090.3969 L1256.6456 1088.1989 L1258.8436 1085.5349 L1260.5032 1082.4773 L1261.552 1079.0985 L1261.9177 1075.4709 L1261.552 1071.8433 L1260.5032 1068.4645 L1258.8436 1065.407 L1256.6456 1062.743 L1253.9817 1060.545 L1250.9241 1058.8855 L1247.5453 1057.8367 L1243.9177 1057.4709 L1240.29 1057.8367 L1237.6202 1058.6654 L1237.5382 1058.7227" clip-path="url(#clipPath2)"/>
      <path d="M1230.8486 1063.11 L1243.6251 1060.71 L1238.3744 1058.1742 L1238.141 1052.3479 Z" clip-path="url(#clipPath2)" stroke="none"/>
      <text x="1268.3496" xml:space="preserve" y="1078.338" clip-path="url(#clipPath2)" font-family="sans-serif" stroke="none">playAudio()</text>
      <path fill="none" stroke-dasharray="6,2" d="M1225.9177 1090.4709 L1225.9177 1120.4709" clip-path="url(#clipPath2)"/>
      <path fill="none" d="M899.237 964.1055 L899.237 986.1055" clip-path="url(#clipPath2)"/>
      <path d="M899.237 994.1055 L904.237 982.1055 L899.237 985.1055 L894.237 982.1055 Z" clip-path="url(#clipPath2)" stroke="none"/>
      <path fill="none" d="M904.2515 1021.5212 L904.509 1021.8334 L907.173 1024.0314 L910.2306 1025.691 L913.6093 1026.7399 L917.237 1027.1055 L920.8646 1026.7399 L924.2434 1025.691 L927.301 1024.0314 L929.9649 1021.8335 L932.1628 1019.1695 L933.8224 1016.1119 L934.8713 1012.7332 L935.237 1009.1055 L934.8713 1005.4779 L933.8225 1002.0991 L932.1629 999.0416 L929.965 996.3776 L927.301 994.1797 L924.2434 992.5201 L920.8647 991.4713 L917.237 991.1055 L913.6094 991.4712 L910.9395 992.2999 L910.8575 992.3571" clip-path="url(#clipPath2)"/>
      <path d="M904.1679 996.7446 L916.9444 994.3444 L911.6937 991.8087 L911.4601 985.9824 Z" clip-path="url(#clipPath2)" stroke="none"/>
      <text x="938.493" y="1012.0116" clip-path="url(#clipPath2)" fill="rgb(153,204,0)" font-family="sans-serif" stroke="none" xml:space="preserve">isOwner()</text>
      <path fill="none" stroke-dasharray="6,2" d="M899.237 1024.1055 L899.237 1120.4709" clip-path="url(#clipPath2)"/>
      <path fill="none" d="M1230.9323 1024.7041 L1231.1898 1025.0162 L1233.8538 1027.2141 L1236.9113 1028.8738 L1240.29 1029.9226 L1243.9177 1030.2882 L1247.5453 1029.9226 L1250.9241 1028.8738 L1253.9817 1027.2141 L1256.6456 1025.0162 L1258.8436 1022.3522 L1260.5032 1019.2947 L1261.552 1015.9159 L1261.9177 1012.2883 L1261.552 1008.6606 L1260.5032 1005.2819 L1258.8436 1002.2243 L1256.6456 999.5604 L1253.9817 997.3624 L1250.9242 995.7028 L1247.5454 994.654 L1243.9177 994.2883 L1240.2902 994.654 L1237.6202 995.4828 L1237.5382 995.54" clip-path="url(#clipPath2)"/>
      <path d="M1230.8486 999.9274 L1243.6251 997.5273 L1238.3744 994.9916 L1238.1409 989.1653 Z" clip-path="url(#clipPath2)" stroke="none"/>
      <text x="1266.493" y="1014.4116" clip-path="url(#clipPath2)" fill="red" font-family="sans-serif" stroke="none" xml:space="preserve">isOwner()</text>
      <path fill="none" d="M1225.9177 964.1055 L1225.9177 989.2883" clip-path="url(#clipPath2)"/>
      <path d="M1225.9177 997.2883 L1230.9177 985.2883 L1225.9177 988.2883 L1220.9177 985.2883 Z" clip-path="url(#clipPath2)" stroke="none"/>
      <path fill="none" d="M1225.9177 1027.2882 L1225.9177 1052.4709" clip-path="url(#clipPath2)"/>
      <path d="M1225.9177 1060.4709 L1230.9177 1048.4709 L1225.9177 1051.4709 L1220.9177 1048.4709 Z" clip-path="url(#clipPath2)" stroke="none"/>
      <path fill="none" d="M904.2292 836.8606 L904.4857 837.1714 L907.1378 839.3596 L910.1817 841.0118 L913.5455 842.056 L917.157 842.42 L920.7685 842.056 L924.1323 841.0118 L927.1762 839.3596 L929.8284 837.1714 L932.0165 834.5193 L933.6688 831.4753 L934.713 828.1115 L935.077 824.5001 L934.713 820.8885 L933.6688 817.5248 L932.0165 814.4808 L929.8284 811.8287 L927.1763 809.6405 L924.1323 807.9883 L920.7685 806.9441 L917.157 806.58 L913.5455 806.9441 L910.9229 807.7582 L910.8408 807.8154" clip-path="url(#clipPath2)"/>
      <path d="M904.1456 812.1942 L916.9252 809.8106 L911.6777 807.2681 L911.4517 801.4415 Z" clip-path="url(#clipPath2)" stroke="none"/>
      <text x="939.3889" xml:space="preserve" y="827.4579" clip-path="url(#clipPath2)" font-family="sans-serif" stroke="none">downSampleAudio()</text>
      <path fill="none" d="M899.237 779.5 L899.237 801.5" clip-path="url(#clipPath2)"/>
      <path d="M899.237 809.5 L904.237 797.5 L899.237 800.5 L894.237 797.5 Z" clip-path="url(#clipPath2)" stroke="none"/>
      <path fill="none" d="M899.237 839.5 L899.237 859.74" clip-path="url(#clipPath2)"/>
      <path d="M899.237 867.74 L904.237 855.74 L899.237 858.74 L894.237 855.74 Z" clip-path="url(#clipPath2)" stroke="none"/>
    </g>
  </g>
</svg>
