mtllib ./model_0.mtl
#cOpenShell v0.7.0-e508fb44
g 0CcrThRQj8pPDxG$gf6cEN
s 1
v 1 0 0
v 0 0 0
v 1 -1 2.22044604925031e-16
v 0 -1 2.22044604925031e-16
v 1 0 0
v 1 4.44089209850063e-17 0.2
v 1 -1 0.2
v 1 -1 2.22044604925031e-16
v 1 4.44089209850063e-17 0.2
v 0.8 4.44089209850063e-17 0.2
v 0.8 -1 0.2
v 1 -1 0.2
v 0.8 4.44089209850063e-17 0.2
v 0.8 8.88178419700125e-17 0.4
v 0.8 -1 0.4
v 0.8 -1 0.2
v 0.8 8.88178419700125e-17 0.4
v 0.6 8.88178419700125e-17 0.4
v 0.6 -1 0.4
v 0.8 -1 0.4
v 0.6 8.88178419700125e-17 0.4
v 0.6 1.33226762955019e-16 0.6
v 0.6 -1 0.6
v 0.6 -1 0.4
v 0.6 1.33226762955019e-16 0.6
v 0.4 1.33226762955019e-16 0.6
v 0.4 -1 0.6
v 0.6 -1 0.6
v 0.4 1.33226762955019e-16 0.6
v 0.4 1.77635683940025e-16 0.8
v 0.4 -1 0.8
v 0.4 -1 0.6
v 0.4 1.77635683940025e-16 0.8
v 0.2 1.77635683940025e-16 0.8
v 0.2 -1 0.8
v 0.4 -1 0.8
v 0.2 1.77635683940025e-16 0.8
v 0.2 2.22044604925031e-16 1
v 0.2 -1 1
v 0.2 -1 0.8
v 0.2 2.22044604925031e-16 1
v 0 2.22044604925031e-16 1
v 0 -1 1
v 0.2 -1 1
v 0 0 0
v 0 2.22044604925031e-16 1
v 0 -1 2.22044604925031e-16
v 0 -1 1
v 0 0 0
v 0 2.22044604925031e-16 1
v 0.2 2.22044604925031e-16 1
v 0.2 1.77635683940025e-16 0.8
v 0.4 1.77635683940025e-16 0.8
v 0.4 1.33226762955019e-16 0.6
v 0.6 1.33226762955019e-16 0.6
v 0.6 8.88178419700125e-17 0.4
v 0.8 8.88178419700125e-17 0.4
v 0.8 4.44089209850063e-17 0.2
v 1 4.44089209850063e-17 0.2
v 1 0 0
v 0 -1 2.22044604925031e-16
v 0 -1 1
v 1 -1 2.22044604925031e-16
v 1 -1 0.2
v 0.8 -1 0.2
v 0.8 -1 0.4
v 0.6 -1 0.4
v 0.6 -1 0.6
v 0.4 -1 0.6
v 0.4 -1 0.8
v 0.2 -1 0.8
v 0.2 -1 1
vn 0 -2.22044604925031e-16 -1
vn 0 -2.22044604925031e-16 -1
vn 0 -2.22044604925031e-16 -1
vn 0 -2.22044604925031e-16 -1
vn 1 -1.4791141972894e-30 0
vn 1 -1.4791141972894e-30 0
vn 1 -1.4791141972894e-30 0
vn 1 -1.4791141972894e-30 0
vn 0 0 1
vn 0 0 1
vn 0 0 1
vn 0 0 1
vn 1 0 0
vn 1 0 0
vn 1 0 0
vn 1 0 0
vn 0 0 1
vn 0 0 1
vn 0 0 1
vn 0 0 1
vn 1 0 0
vn 1 0 0
vn 1 0 0
vn 1 0 0
vn 0 0 1
vn 0 0 1
vn 0 0 1
vn 0 0 1
vn 1 0 0
vn 1 0 0
vn 1 0 0
vn 1 0 0
vn 0 0 1
vn 0 0 1
vn 0 0 1
vn 0 0 1
vn 1 0 0
vn 1 0 0
vn 1 0 0
vn 1 0 0
vn 0 0 1
vn 0 0 1
vn 0 0 1
vn 0 0 1
vn -1 0 0
vn -1 0 0
vn -1 0 0
vn -1 0 0
vn -2.72198098806729e-31 1 -2.22044604925031e-16
vn -2.72198098806729e-31 1 -2.22044604925031e-16
vn -2.72198098806729e-31 1 -2.22044604925031e-16
vn -2.72198098806729e-31 1 -2.22044604925031e-16
vn -2.72198098806729e-31 1 -2.22044604925031e-16
vn -2.72198098806729e-31 1 -2.22044604925031e-16
vn -2.72198098806729e-31 1 -2.22044604925031e-16
vn -2.72198098806729e-31 1 -2.22044604925031e-16
vn -2.72198098806729e-31 1 -2.22044604925031e-16
vn -2.72198098806729e-31 1 -2.22044604925031e-16
vn -2.72198098806729e-31 1 -2.22044604925031e-16
vn -2.72198098806729e-31 1 -2.22044604925031e-16
vn 0 -1 0
vn 0 -1 0
vn 0 -1 0
vn 0 -1 0
vn 0 -1 0
vn 0 -1 0
vn 0 -1 0
vn 0 -1 0
vn 0 -1 0
vn 0 -1 0
vn 0 -1 0
vn 0 -1 0
usemtl surface-style-93
f 4//4 2//2 1//1
f 4//4 1//1 3//3
f 6//6 7//7 8//8
f 6//6 8//8 5//5
f 9//9 10//10 11//11
f 9//9 11//11 12//12
f 15//15 13//13 14//14
f 15//15 16//16 13//13
f 17//17 18//18 19//19
f 17//17 19//19 20//20
f 23//23 21//21 22//22
f 23//23 24//24 21//21
f 25//25 26//26 27//27
f 25//25 27//27 28//28
f 31//31 29//29 30//30
f 31//31 32//32 29//29
f 33//33 34//34 35//35
f 33//33 35//35 36//36
f 39//39 37//37 38//38
f 39//39 40//40 37//37
f 41//41 42//42 43//43
f 41//41 43//43 44//44
f 47//47 46//46 45//45
f 47//47 48//48 46//46
f 56//56 49//49 54//54
f 52//52 49//49 50//50
f 52//52 54//54 49//49
f 58//58 60//60 49//49
f 58//58 49//49 56//56
f 59//59 60//60 58//58
f 51//51 52//52 50//50
f 55//55 56//56 54//54
f 57//57 58//58 56//56
f 53//53 54//54 52//52
f 71//71 72//72 62//62
f 69//69 70//70 71//71
f 61//61 71//71 62//62
f 61//61 69//69 71//71
f 67//67 68//68 69//69
f 67//67 69//69 61//61
f 65//65 66//66 67//67
f 65//65 67//67 61//61
f 63//63 64//64 65//65
f 63//63 65//65 61//61
